<svg width="60" height="70" viewBox="0 0 60 70" fill="none" xmlns="http://www.w3.org/2000/svg">
<path fill-rule="evenodd" clip-rule="evenodd" d="M28.0225 0.0141393C27.9427 0.0290082 27.3687 0.0958202 26.7469 0.162534C26.1251 0.229151 25.5714 0.311908 25.5164 0.346243C25.4495 0.388209 25.4826 0.810994 25.617 1.62722C25.7273 2.29729 25.8259 2.85458 25.836 2.86564C25.8461 2.87659 26.8478 2.85419 28.062 2.81585C31.486 2.70766 32.7384 2.83072 35.5158 3.54814C37.4512 4.04811 38.6011 4.47128 40.2534 5.29152C42.8068 6.55899 44.7643 7.97848 46.7846 10.0275C48.1956 11.4586 48.9151 12.3355 49.9365 13.8686C50.3422 14.4774 50.7041 14.9876 50.7408 15.0025C50.8765 15.0574 52.6777 13.4646 52.6777 13.2897C52.6777 13.1099 51.241 11.0052 50.5273 10.1396C48.6093 7.81296 45.7914 5.29553 43.7045 4.04439C39.836 1.72504 36.3508 0.5323 32.3734 0.166447C31.2761 0.0654956 28.3041 -0.0384887 28.0225 0.0141393ZM22.5597 1.00918C22.1601 1.10925 19.031 2.40275 18.3539 2.74766C17.2554 3.3074 15.1812 4.58172 14.3351 5.21668C11.2384 7.54092 8.41424 10.5173 8.39712 11.4749C8.39335 11.6883 9.01263 12.3119 9.40934 12.4942C10.0781 12.8016 10.1221 12.7771 11.3288 11.4261C13.5056 8.98878 15.6392 7.2769 18.4021 5.75079C19.5491 5.1173 21.219 4.37493 21.8674 4.21029C22.0872 4.15444 22.2318 3.92749 22.8082 2.73368C23.5573 1.18223 23.5931 0.929749 23.0608 0.949411C22.8915 0.955672 22.666 0.982573 22.5597 1.00918ZM23.7359 3.31024C22.8881 4.45426 22.1561 7.10073 21.6921 10.6992C21.2097 14.441 20.0481 16.6071 17.8088 17.9412C16.7604 18.5657 14.8489 19.2773 13.4227 19.5738C12.1965 19.8287 11.3923 20.1175 11.3923 20.303C11.3923 20.7096 14.031 21.828 16.8068 22.598L18.3054 23.0138L18.2723 24.6194C18.2368 26.3341 18.3076 26.8362 18.7032 27.6784C19.1806 28.6943 20.1319 29.6739 20.9957 30.0391C21.409 30.2138 21.4838 30.3226 21.5161 30.7957C21.5552 31.3676 21.8743 32.1745 22.5772 33.4785C23.4068 35.0177 23.9624 35.771 25.1664 36.9891C26.0928 37.9264 28.8657 40.3583 29.0094 40.3596C29.047 40.3599 29.7431 39.7991 30.5564 39.1133C33.6359 36.5167 35.5499 34.2963 36.2834 32.4699C36.5751 31.7438 36.8811 30.5192 36.9649 29.7428C37.0214 29.2195 37.0593 29.1384 37.2968 29.0319C37.8348 28.7911 38.7146 27.8701 39.0812 27.1644C39.6694 26.0318 39.844 25.1896 39.8436 23.4859C39.8434 22.6789 39.7984 21.7325 39.7437 21.3828C39.6704 20.915 39.6735 20.7182 39.7554 20.6381C39.8166 20.5782 40.3534 20.3084 40.9482 20.0384C42.2783 19.4349 43.9517 18.4722 45.4392 17.4549C46.7961 16.5269 46.8935 16.4269 46.6311 16.2312C46.4736 16.1137 46.1213 16.1006 44.556 16.1537C41.8917 16.2441 40.8924 16.1249 39.8195 15.5885C39.1036 15.2306 38.8318 15.0112 37.731 13.9025C37.035 13.2014 35.9421 12.0335 35.3025 11.3072C33.5634 9.33243 31.6046 7.49279 29.6931 6.03907C28.6834 5.27117 28.2491 5.01272 28.0794 5.07856C28.0054 5.10742 27.8969 5.35618 27.8386 5.63154C27.6148 6.68743 27.7699 8.51239 28.2034 9.92151C28.3055 10.2532 28.3546 10.5246 28.3126 10.5246C28.1371 10.5246 26.2809 8.43306 25.7579 7.64589C24.8725 6.31356 24.2591 4.66869 24.2533 3.61172C24.2514 3.24959 24.1682 2.99232 24.0529 2.99232C24.0081 2.99232 23.8654 3.13543 23.7359 3.31024ZM0.0227539 4.38627C0.417818 5.78757 0.487916 6.29732 0.436188 7.39429C0.406989 8.01301 0.315427 8.73933 0.232566 9.00834C0.149706 9.27735 0.0815388 9.54519 0.0809586 9.60349C0.0803785 9.66169 0.417916 9.93217 0.83106 10.2044C1.81621 10.8536 3.40719 12.4338 4.03363 13.3851C4.79137 14.5359 5.54243 16.0335 6.0629 17.4319C6.7253 19.2117 6.8801 19.8196 7.36769 22.5566C7.86757 25.3627 8.56555 28.5889 9.11377 30.6269C9.42713 31.7919 9.92807 33.2355 10.6413 35.0289C11.8115 37.9709 12.2686 38.8944 12.5525 38.8905C12.8234 38.8869 13.5194 38.5118 13.5194 38.3697C13.5194 38.2918 13.3889 37.962 13.2294 37.6367C13.0698 37.3114 12.9393 37.0201 12.9393 36.9895C12.9393 36.959 12.6983 36.3547 12.4036 35.6466C11.6078 33.7342 10.6716 30.8048 10.0804 28.377C9.42278 25.676 9.27079 24.8105 8.7832 20.9915C8.56681 19.2967 8.30304 17.5359 8.19698 17.0786C7.65775 14.7537 6.86289 12.9484 5.64831 11.29C5.19146 10.6662 4.81757 10.1268 4.81757 10.0914C4.81757 10.0561 5.1113 10.2621 5.47021 10.5494C5.82911 10.8367 6.26701 11.1737 6.44327 11.2984L6.76379 11.5251L6.99922 11.3013C7.12878 11.1781 7.23475 11.0173 7.23475 10.9438C7.23475 10.4774 5.95587 8.76672 4.51552 7.30654C2.98293 5.75274 0.781556 4.16618 0.15831 4.16618C-0.000546886 4.16618 -0.0271366 4.20932 0.0227539 4.38627ZM58.6 13.7591C58.2678 13.8029 57.2044 13.9083 56.2371 13.9935C55.2696 14.0787 54.4609 14.1659 54.4399 14.1871C54.3752 14.2527 54.8105 15.9189 55.0578 16.5524L55.2916 17.1513L54.5406 17.8845C54.1276 18.2877 53.5503 18.8276 53.2579 19.0841C52.9654 19.3407 52.1822 20.0659 51.5175 20.6958C50.8528 21.3255 49.9608 22.1382 49.5354 22.5016C49.11 22.8649 48.3486 23.5662 47.8434 24.06C47.3382 24.5537 46.3375 25.5069 45.6196 26.1782C44.9017 26.8495 44.2925 27.4221 44.2659 27.4506C44.2394 27.4791 43.1623 28.485 41.8724 29.6859C40.4503 31.0098 39.5038 31.9634 39.4678 32.108C39.3952 32.4007 39.6243 32.6858 39.9925 32.7609C40.136 32.7902 40.3284 32.8435 40.42 32.8794C40.5418 32.9271 40.8014 32.7385 41.3869 32.1767C41.827 31.7544 42.5787 31.0571 43.0574 30.6273C43.536 30.1974 44.6042 29.2071 45.4311 28.4266C47.2449 26.7147 48.6907 25.3718 50.1155 24.0756C50.7005 23.5434 51.5054 22.7963 51.9042 22.4154C52.9616 21.4054 55.3547 19.143 55.9268 18.6124C56.1982 18.3606 56.4954 18.1547 56.5873 18.1547C56.7353 18.1547 58.6728 18.7242 59.0663 18.8834C59.1972 18.9364 59.2493 18.6933 59.4365 17.1559C59.6314 15.557 59.8359 14.3188 59.9866 13.8261C60.0313 13.6801 59.9774 13.6567 59.6215 13.6673C59.392 13.6741 58.9323 13.7154 58.6 13.7591ZM10.0504 14.3892C9.92391 14.5771 9.784 14.7309 9.73953 14.7309C9.69515 14.7309 9.61557 14.8124 9.56297 14.912C9.4835 15.0622 9.52827 15.1343 9.82539 15.3346C10.0224 15.4673 10.9588 16.1089 11.906 16.7604L13.6283 17.9448L14.1298 17.7968C14.6712 17.6371 15.0664 17.4195 15.0664 17.2811C15.0664 17.2336 14.2941 16.647 13.3502 15.9777C11.0178 14.3239 10.5971 14.0461 10.4267 14.0468C10.3462 14.0472 10.1768 14.2013 10.0504 14.3892ZM52.3362 15.9352L51.5698 16.6573L51.7871 17.8707C51.9066 18.5379 52.0037 19.161 52.0027 19.2552C52.0017 19.3493 52.0298 19.4263 52.0651 19.4263C52.1377 19.4263 53.4144 18.3183 53.6597 18.0424C53.8368 17.8431 53.8263 17.65 53.5563 16.1502C53.4445 15.5284 53.3548 15.2623 53.2504 15.2419C53.1692 15.2261 52.7578 15.538 52.3362 15.9352ZM3.35527 17.6411C3.19922 18.0452 2.61745 20.8075 2.45395 21.9208C2.13682 24.08 2.06991 25.4327 2.19067 27.2428C2.37883 30.0635 2.87657 32.5032 3.79897 35.1267C4.3002 36.5524 5.38802 38.8844 6.2263 40.3304C6.77578 41.2783 7.51147 42.3166 7.63358 42.3166C7.77871 42.3166 10.5732 40.2369 10.602 40.1075C10.6194 40.0296 10.5324 39.8393 10.4086 39.6845C8.14467 36.852 6.31535 32.81 5.64502 29.1596C5.18247 26.64 5.17995 23.2077 5.63873 20.5024C5.69017 20.199 5.625 20.0501 5.06673 19.1955C4.27912 17.9896 3.78234 17.3721 3.60008 17.3721C3.52264 17.3721 3.41241 17.4932 3.35527 17.6411ZM49.9126 18.1379C49.652 18.3492 49.2897 18.6806 49.1076 18.8741L48.7766 19.2262L48.9472 20.5735C49.0411 21.3145 49.1495 21.9545 49.1881 21.9957C49.2266 22.037 49.6142 21.736 50.0494 21.327C50.7529 20.6658 50.8407 20.5447 50.8407 20.2366C50.8407 19.7611 50.5505 17.9283 50.4599 17.8319C50.4196 17.789 50.1732 17.9267 49.9126 18.1379ZM55.0677 19.9427C54.3093 20.6548 54.2085 20.7958 54.4576 20.7958C54.5326 20.7958 55.1246 20.9519 55.7733 21.1426C57.1197 21.5385 56.9571 21.5745 57.9472 20.6617C58.336 20.3033 58.4954 20.0943 58.4306 20.0279C58.3309 19.9258 56.1406 19.2285 55.9353 19.2335C55.8719 19.2351 55.4816 19.5542 55.0677 19.9427ZM35.8899 21.9942C36.0033 22.4225 35.9494 24.8873 35.8087 25.6986C35.5452 27.2184 35.0946 28.6238 34.4634 29.8933C33.5334 31.764 32.9755 32.5555 31.8774 33.5616C30.9948 34.3703 30.2985 34.7031 29.3624 34.7637C27.6168 34.8766 26.1421 33.7572 24.3014 30.9221C22.9884 28.8998 22.096 26.356 21.9655 24.2639L21.9042 23.2812L24.4557 23.2737C27.0956 23.2657 28.8598 23.1271 31.1461 22.748C32.2978 22.5569 34.6473 22.057 35.2257 21.8797C35.692 21.7369 35.828 21.7603 35.8899 21.9942ZM52.7686 22.2246C51.7921 23.0612 51.5961 23.2622 51.6778 23.3435C51.7881 23.4532 53.0954 23.8006 53.6929 23.8791C53.9588 23.914 54.2911 23.8978 54.4314 23.8431C54.7916 23.7027 55.9651 22.7388 55.9651 22.5833C55.9651 22.5121 55.8455 22.4076 55.6992 22.3509C55.2593 22.1803 53.7073 21.7745 53.4938 21.7744C53.3842 21.7742 53.0579 21.9768 52.7686 22.2246ZM54.2479 25.574C53.4896 25.8344 52.8495 26.0674 52.8256 26.0917C52.8016 26.116 52.6713 26.7061 52.536 27.4032C51.9078 30.6395 50.5052 34.0139 48.6402 36.7753C48.2095 37.413 47.8773 37.9852 47.9021 38.047C47.9269 38.1087 48.2392 38.3475 48.5963 38.5776C48.9532 38.8077 49.5214 39.2329 49.8588 39.5224C50.1962 39.8119 50.5548 40.0705 50.6555 40.0972C50.8028 40.1361 50.9785 39.9221 51.5523 39.0057C53.4599 35.9586 54.5191 33.3984 55.3259 29.8845C55.6197 28.6046 55.9651 26.146 55.9651 25.3341C55.9651 25.0091 55.8438 25.026 54.2479 25.574ZM37.0679 33.2436C37.0474 33.3109 37.0064 33.6741 36.9767 34.0507C36.9348 34.5812 36.8363 34.9117 36.5391 35.518C35.911 36.7993 34.8693 37.9073 32.0269 40.3174C31.6502 40.6368 30.8309 41.3551 30.2062 41.9135L29.0705 42.9289L28.6674 42.5393C28.4456 42.3251 27.4161 41.4281 26.3796 40.5458C22.5892 37.3198 21.8202 36.3376 21.5877 34.4256C21.5495 34.1118 21.474 33.8263 21.4198 33.7911C21.258 33.6859 20.2252 34.1128 19.7352 34.4874C19.1662 34.9226 18.793 35.5268 18.5874 36.3462C18.3893 37.1355 18.4532 37.7668 18.8049 38.4956C19.4621 39.8573 24.4303 44.2803 26.6689 45.4967C27.816 46.12 28.3744 46.2694 29.2712 46.1927C30.5777 46.081 31.504 45.5196 34.8077 42.8371C37.9987 40.2462 39.4516 38.5949 39.7288 37.2442C39.958 36.1265 39.585 34.9505 38.722 34.0708C38.0092 33.3441 37.1655 32.9223 37.0679 33.2436ZM41.5621 37.5169C41.5071 37.621 41.462 37.7684 41.462 37.8446C41.462 38.0504 40.5593 41.3368 40.1565 42.5974C39.3545 45.1073 37.7006 48.6745 36.0759 51.3986C35.9586 51.5954 35.8606 51.7832 35.8583 51.816C35.8495 51.9411 39.2499 55.1715 41.6466 57.3152C42.3849 57.9756 42.9405 58.3593 43.1581 58.3593C43.32 58.3593 45.0789 57.3306 46.0547 56.6653C48.0112 55.3311 50.2926 53.4129 52.1954 51.5022C53.7075 49.9837 55.3821 48.0347 55.3838 47.7908C55.3857 47.5366 53.4179 45.3832 51.3157 43.3391C49.628 41.6981 46.9331 39.6811 45.1361 38.7142C44.3363 38.2839 42.0018 37.3277 41.7509 37.3277C41.7021 37.3277 41.6172 37.4128 41.5621 37.5169ZM14.6797 40.0749C12.6762 41.2037 12.0982 41.5682 10.603 42.6456C8.82303 43.9282 7.51872 45.0473 5.64579 46.8986C4.50711 48.0242 3.46395 49.2151 3.46395 49.3896C3.46395 49.5112 5.55577 51.8553 6.13851 52.3867C6.39579 52.6213 6.84558 53.04 7.13806 53.3171C10.1554 56.1757 14.8703 59.0567 18.6438 60.3476C20.7374 61.0638 24.3209 61.7959 26.8622 62.0267C27.9846 62.1285 27.9865 61.963 26.8834 60.2625C24.0451 55.8867 20.9331 50.6718 19.0929 47.2077C18.1726 45.4753 16.2109 41.4319 15.8893 40.6047C15.5306 39.6821 15.4442 39.6442 14.6797 40.0749ZM20.1908 43.9963C20.1908 44.1169 20.3728 44.4817 20.5953 44.8068C21.0793 45.5145 22.7476 47.7432 23.0514 48.0881C23.3936 48.4766 24.4579 49.7503 24.9307 50.3373C26.4804 52.261 29.7767 55.7155 33.1469 58.9478C35.3446 61.0556 35.8515 61.4896 36.1164 61.4896C36.531 61.4896 39.3056 60.3427 39.5184 60.0832C39.6011 59.9824 39.0674 59.4165 37.0866 57.5048C33.9166 54.4453 29.772 50.2875 29.099 49.4916C28.6791 48.9951 28.4854 48.8508 27.992 48.6671C26.805 48.2251 25.9461 47.78 24.5074 46.861C22.8356 45.7931 22.786 45.7578 21.5445 44.7509C21.0393 44.3412 20.5281 43.9545 20.4084 43.8915C20.2138 43.7891 20.1908 43.8002 20.1908 43.9963ZM37.5733 64.9077C35.8774 65.246 35.0911 67.5356 36.1589 69.0269C36.4963 69.4981 37.4468 69.9999 38.0021 70C38.8513 70.0002 39.8572 69.4184 40.207 68.7245C40.6377 67.8704 40.5325 66.5063 39.9794 65.7726C39.4641 65.0891 38.4648 64.7299 37.5733 64.9077ZM8.03242 64.9788L7.71818 65.0236V67.3651C7.71818 68.653 7.71818 69.7396 7.71818 69.78C7.71818 69.8204 7.94666 69.8534 8.22579 69.8534H8.7334L8.76144 69.0463L8.78957 68.2393L9.29322 68.2387C9.96636 68.238 10.4517 68.091 10.8223 67.7754C11.4015 67.2824 11.54 66.5556 11.1931 65.8305C10.9007 65.2195 10.3508 64.975 9.21684 64.9518C8.73823 64.942 8.20529 64.9543 8.03242 64.9788ZM14.8043 64.9732C14.6144 65.0571 14.0152 66.4204 13.2262 68.5639C12.7202 69.9383 12.72 69.9365 13.4257 69.884C13.8256 69.8542 13.843 69.8385 14.0298 69.3398L14.2221 68.8262H15.2032H16.1843L16.3337 69.3398L16.4831 69.8534L17.0317 69.8827C17.4793 69.9067 17.5803 69.8836 17.5803 69.7575C17.5803 69.5577 16.5269 66.7401 16.0871 65.7639C15.8995 65.3472 15.6876 65.0112 15.6127 65.0112C15.5382 65.0112 15.3522 64.991 15.1994 64.9664C15.0465 64.9417 14.8687 64.9448 14.8043 64.9732ZM24.735 67.4374L24.7351 69.9125L25.2427 69.8829L25.7503 69.8534L25.778 68.8996C25.7988 68.1837 25.8378 67.9458 25.9346 67.9458C26.0056 67.9458 26.4273 68.386 26.8718 68.9241L27.68 69.9023H28.238C28.5449 69.9023 28.7944 69.8693 28.7926 69.8289C28.782 69.601 27.2255 67.6033 26.9348 67.4445C26.8417 67.3936 26.7656 67.3053 26.7656 67.2483C26.7656 67.1912 27.2017 66.6788 27.7349 66.1096C28.268 65.5405 28.6704 65.0435 28.6292 65.0053C28.588 64.9671 28.3019 64.9584 27.9935 64.986C27.433 65.0362 27.4323 65.0366 26.6919 65.8552C26.2844 66.3057 25.9167 66.6742 25.8749 66.6742C25.833 66.6742 25.7987 66.3041 25.7987 65.8518V65.0293L25.2668 64.9958L24.7348 64.9623L24.735 67.4374ZM42.8881 64.9786L42.5256 65.023V67.4678V69.9125L43.0332 69.8829L43.5408 69.8534L43.5688 69.0463L43.597 68.2393H43.975C45.708 68.2393 46.6251 67.136 45.992 65.8127C45.7089 65.2211 45.1977 64.9933 44.077 64.9593C43.6226 64.9455 43.0876 64.9542 42.8881 64.9786ZM55.8127 64.9988C54.8205 65.2607 54.3659 65.84 54.4402 66.7474C54.478 67.2082 54.5331 67.3296 54.8347 67.6175L55.1852 67.9521L54.8634 68.4625C54.5385 68.978 54.128 69.7521 54.128 69.8495C54.128 69.8785 54.3611 69.9023 54.6461 69.9023H55.1641L55.5307 69.2909C56.2096 68.1583 56.2908 68.0758 56.6812 68.1218L57.0287 68.1629V69.0377V69.9125L57.5363 69.8829L58.0439 69.8534L58.0698 67.4923C58.093 65.372 58.0794 65.125 57.9358 65.0692C57.6698 64.9659 56.1306 64.9149 55.8127 64.9988ZM1.91695 65.4451V65.883L2.61794 65.9117L3.31892 65.9405L3.34512 67.8711L3.37132 69.8017L3.59931 69.8596C3.72471 69.8915 3.95222 69.9032 4.10489 69.8855L4.38248 69.8534L4.43082 67.8969L4.47916 65.9405L5.19562 65.8916L5.91217 65.8427L5.92077 65.4514L5.92947 65.0601L3.92321 65.0337L1.91695 65.0072V65.4451ZM19.4173 67.3974C19.4173 69.483 19.4366 69.791 19.5703 69.8429C19.6544 69.8756 20.4158 69.9023 21.2623 69.9023H22.8014V69.4132V68.9241H21.6411H20.4809V68.3371V67.7502H21.4478H22.4146V67.31V66.8698H21.4478H20.4809V66.3839V65.898L21.5686 65.8704L22.6564 65.8427L22.686 65.4269L22.7158 65.0112H21.0665H19.4173V67.3974ZM30.1496 65.4451V65.883L30.8506 65.9117L31.5516 65.9405L31.5778 67.9214L31.6039 69.9023H32.1317H32.6595L32.6856 67.9214L32.7118 65.9405L33.437 65.8916L34.1621 65.8427V65.4514V65.0601L32.1559 65.0337L30.1496 65.0072V65.4451ZM48.0593 67.4323L48.0851 69.8534L48.4779 69.8825L48.8709 69.9118L49.6291 68.7576C50.0462 68.1228 50.5437 67.4092 50.7349 67.1719L51.0824 66.7402L51.1307 68.2968L51.1791 69.8534L51.6867 69.8829L52.1943 69.9125V67.4618V65.0112L51.735 65.0125C51.2894 65.0137 51.2612 65.0319 50.7833 65.6239C50.5125 65.9595 50.0505 66.5736 49.7567 66.9887C49.4629 67.4038 49.1951 67.7156 49.1614 67.6816C49.1278 67.6476 49.1003 67.0329 49.1003 66.3155V65.0112H48.5669H48.0334L48.0593 67.4323ZM38.4702 65.8915C38.996 66.0393 39.274 66.4897 39.3181 67.265C39.3799 68.353 38.908 69.0212 38.078 69.0212C37.3045 69.0212 36.7961 68.3681 36.8076 67.3896C36.8164 66.6445 37.1205 66.1342 37.6932 65.9029C38.0045 65.7772 38.0608 65.7765 38.4702 65.8915ZM10.143 66.0923C10.1932 66.1702 10.2228 66.4098 10.2089 66.6246C10.1796 67.0784 9.97051 67.2228 9.26518 67.2767L8.83009 67.31L8.80147 66.5892L8.77285 65.8682L9.41234 65.9094C9.82742 65.9362 10.0839 66.0004 10.143 66.0923ZM44.8245 66.0439C44.9844 66.1572 45.0394 66.2942 45.0394 66.5797C45.0394 67.0566 44.8044 67.2357 44.1209 67.2792L43.6375 67.31L43.609 66.6008L43.5806 65.8916H44.0952C44.4043 65.8916 44.6954 65.9523 44.8245 66.0439ZM57.0287 66.5274V67.1633H56.4485C55.6389 67.1633 55.2986 66.8117 55.5846 66.2709C55.7203 66.0145 56.0083 65.9054 56.5694 65.8978L57.0287 65.8916V66.5274ZM15.4125 66.6497C15.5053 66.9052 15.6394 67.2628 15.7105 67.4442C15.7817 67.6257 15.8399 67.8148 15.8399 67.8645C15.8399 67.9142 15.5462 67.9417 15.1873 67.9259C14.8144 67.9094 14.5449 67.855 14.5585 67.7991C14.6492 67.4271 15.1269 66.1852 15.1792 66.1852C15.2147 66.1851 15.3197 66.3942 15.4125 66.6497Z" fill="black"/>
</svg>
