<svg width="42" height="49" viewBox="0 0 42 49" fill="none" xmlns="http://www.w3.org/2000/svg">
<path fill-rule="evenodd" clip-rule="evenodd" d="M19.6157 0.00989752C19.5599 0.0203057 19.1581 0.0670741 18.7228 0.113774C18.2876 0.160406 17.9 0.218336 17.8615 0.24237C17.8146 0.271746 17.8378 0.567696 17.9319 1.13905C18.0091 1.60811 18.0781 1.99821 18.0852 2.00595C18.0922 2.01362 18.7935 1.99794 19.6434 1.97109C22.0402 1.89536 22.9169 1.9815 24.861 2.4837C26.2159 2.83367 27.0208 3.1299 28.1774 3.70406C29.9648 4.59129 31.335 5.58494 32.7492 7.01928C33.7369 8.02101 34.2406 8.63488 34.9556 9.70803C35.2395 10.1341 35.4928 10.4913 35.5186 10.5017C35.6136 10.5402 36.8744 9.42522 36.8744 9.30279C36.8744 9.17693 35.8687 7.70362 35.3691 7.09769C34.0265 5.46907 32.054 3.70687 30.5931 2.83107C27.8852 1.20753 25.4456 0.37261 22.6614 0.116513C21.8933 0.0458469 19.8129 -0.0269421 19.6157 0.00989752ZM15.7918 0.706426C15.512 0.776476 13.3217 1.68192 12.8477 1.92337C12.0788 2.31518 10.6268 3.20721 10.0345 3.65168C7.86686 5.27865 5.88996 7.36214 5.87799 8.03244C5.87535 8.18178 6.30884 8.61831 6.58654 8.74595C7.05469 8.9611 7.08548 8.94398 7.93014 7.99827C9.45391 6.29215 10.9474 5.09383 12.8815 4.02555C13.6844 3.58211 14.8533 3.06245 15.3072 2.94721C15.461 2.90811 15.5623 2.74924 15.9657 1.91357C16.4901 0.827559 16.5151 0.650824 16.1426 0.664588C16.024 0.66897 15.8662 0.687801 15.7918 0.706426ZM16.6151 2.31717C16.0217 3.11798 15.5093 4.97051 15.1845 7.48943C14.8468 10.1087 14.0337 11.625 12.4661 12.5589C11.7323 12.996 10.3942 13.4941 9.39591 13.7016C8.53758 13.8801 7.97461 14.0823 7.97461 14.2121C7.97461 14.4967 9.82169 15.2796 11.7647 15.8186L12.8138 16.1096L12.7906 17.2336C12.7657 18.4339 12.8153 18.7854 13.0922 19.3749C13.4265 20.086 14.0923 20.7718 14.697 21.0274C14.9863 21.1497 15.0387 21.2258 15.0613 21.557C15.0886 21.9573 15.312 22.5222 15.804 23.435C16.3848 24.5124 16.7737 25.0397 17.6165 25.8924C18.265 26.5485 20.206 28.2508 20.3066 28.2517C20.3329 28.2519 20.8202 27.8593 21.3895 27.3793C23.5451 25.5617 24.8849 24.0074 25.3984 22.7289C25.6025 22.2207 25.8167 21.3634 25.8754 20.82C25.915 20.4536 25.9415 20.3969 26.1078 20.3224C26.4844 20.1538 27.1002 19.5091 27.3568 19.0151C27.7686 18.2223 27.8908 17.6327 27.8905 16.4402C27.8904 15.8752 27.8589 15.2127 27.8206 14.9679C27.7693 14.6405 27.7714 14.5027 27.8288 14.4466C27.8716 14.4047 28.2474 14.2159 28.6637 14.0269C29.5948 13.6044 30.7662 12.9305 31.8075 12.2185C32.7573 11.5688 32.8255 11.4989 32.6418 11.3618C32.5315 11.2796 32.2849 11.2704 31.1892 11.3076C29.3242 11.3709 28.6247 11.2874 27.8736 10.912C27.3725 10.6614 27.1823 10.5078 26.4117 9.73172C25.9245 9.24096 25.1595 8.42343 24.7117 7.91501C23.4944 6.5327 22.1232 5.24496 20.7851 4.22735C20.0783 3.68982 19.7744 3.50891 19.6556 3.55499C19.6038 3.57519 19.5278 3.74932 19.487 3.94208C19.3303 4.6812 19.439 5.95867 19.7424 6.94506C19.8138 7.17726 19.8482 7.36721 19.8189 7.36721C19.6959 7.36721 18.3966 5.90314 18.0305 5.35212C17.4108 4.41949 16.9814 3.26808 16.9773 2.52821C16.976 2.27471 16.9177 2.09462 16.837 2.09462C16.8057 2.09462 16.7058 2.1948 16.6151 2.31717ZM0.0159278 3.07039C0.292472 4.0513 0.341541 4.40812 0.305332 5.176C0.284892 5.60911 0.220799 6.11753 0.162796 6.30584C0.104794 6.49415 0.0570771 6.68163 0.056671 6.72244C0.056265 6.76319 0.292541 6.95252 0.581742 7.14309C1.27134 7.59749 2.38503 8.70363 2.82354 9.36955C3.35396 10.1751 3.8797 11.2234 4.24403 12.2023C4.70771 13.4482 4.81607 13.8737 5.15739 15.7896C5.5073 17.7539 5.99588 20.0122 6.37964 21.4388C6.59899 22.2543 6.94965 23.2649 7.44893 24.5202C8.26807 26.5796 8.588 27.2261 8.78678 27.2233C8.97635 27.2208 9.46359 26.9583 9.46359 26.8588C9.46359 26.8043 9.37222 26.5734 9.26055 26.3457C9.14887 26.1179 9.0575 25.9141 9.0575 25.8927C9.0575 25.8713 8.88877 25.4483 8.68255 24.9526C8.12547 23.614 7.47011 21.5633 7.05631 19.8639C6.59595 17.9732 6.48955 17.3674 6.14824 14.694C5.99677 13.5077 5.81213 12.2752 5.73788 11.955C5.36043 10.3276 4.80402 9.06388 3.95381 7.90302C3.63402 7.46636 3.3723 7.08879 3.3723 7.064C3.3723 7.03928 3.57791 7.18349 3.82914 7.3846C4.08038 7.58571 4.3869 7.82161 4.51029 7.90891L4.73465 8.06757L4.89945 7.9109C4.99015 7.82469 5.06432 7.71211 5.06432 7.66069C5.06432 7.3342 4.16911 6.13671 3.16086 5.11458C2.08805 4.02692 0.547089 2.91632 0.110817 2.91632C-0.00038282 2.91632 -0.0189957 2.94652 0.0159278 3.07039ZM41.02 9.6314C40.7875 9.66201 40.0431 9.73583 39.3659 9.79547C38.6887 9.85511 38.1226 9.91612 38.1079 9.93098C38.0626 9.97686 38.3673 11.1433 38.5404 11.5867L38.7041 12.0059L38.1784 12.5191C37.8893 12.8014 37.4852 13.1793 37.2805 13.3588C37.0758 13.5385 36.5275 14.0461 36.0622 14.487C35.5969 14.9279 34.9726 15.4967 34.6748 15.7511C34.377 16.0054 33.844 16.4963 33.4904 16.842C33.1367 17.1876 32.4362 17.8549 31.9337 18.3247C31.4312 18.7947 31.0048 19.1955 30.9862 19.2155C30.9675 19.2354 30.2136 19.9395 29.3106 20.7801C28.3152 21.7069 27.6527 22.3743 27.6275 22.4756C27.5767 22.6805 27.737 22.88 27.9947 22.9326C28.0952 22.9532 28.2298 22.9905 28.294 23.0155C28.3793 23.049 28.5609 22.9169 28.9708 22.5237C29.2789 22.2281 29.8051 21.74 30.1401 21.4391C30.4752 21.1382 31.2229 20.445 31.8018 19.8986C33.0714 18.7003 34.0835 17.7603 35.0809 16.8529C35.4903 16.4804 36.0538 15.9574 36.333 15.6908C37.0731 14.9838 38.7483 13.4001 39.1488 13.0287C39.3387 12.8524 39.5468 12.7083 39.6111 12.7083C39.7147 12.7083 41.071 13.1069 41.3464 13.2184C41.438 13.2554 41.4745 13.0853 41.6056 12.0091C41.742 10.8899 41.8851 10.0231 41.9906 9.67824C42.0219 9.57607 41.9842 9.55971 41.7351 9.5671C41.5744 9.5719 41.2526 9.60079 41.02 9.6314ZM7.03526 10.0724C6.94674 10.204 6.8488 10.3116 6.81767 10.3116C6.7866 10.3116 6.7309 10.3687 6.69408 10.4384C6.63845 10.5436 6.66979 10.594 6.87777 10.7342C7.0157 10.8271 7.67113 11.2762 8.3342 11.7323L9.5398 12.5614L9.89086 12.4578C10.2698 12.346 10.5465 12.1937 10.5465 12.0968C10.5465 12.0635 10.0059 11.6529 9.34515 11.1844C7.71248 10.0267 7.418 9.83224 7.29868 9.83279C7.24237 9.83306 7.12379 9.94091 7.03526 10.0724ZM36.6354 11.1546L36.0989 11.6601L36.251 12.5095C36.3347 12.9765 36.4026 13.4127 36.4019 13.4786C36.4012 13.5445 36.4209 13.5984 36.4456 13.5984C36.4964 13.5984 37.3901 12.8228 37.5618 12.6297C37.6858 12.4902 37.6784 12.355 37.4894 11.3051C37.4111 10.8699 37.3484 10.6836 37.2753 10.6693C37.2184 10.6583 36.9305 10.8766 36.6354 11.1546ZM2.34869 12.3488C2.23945 12.6316 1.83222 14.5652 1.71777 15.3446C1.49577 16.856 1.44894 17.8029 1.53347 19.0699C1.66518 21.0444 2.0136 22.7523 2.65928 24.5887C3.01014 25.5867 3.77162 27.2191 4.35841 28.2313C4.74304 28.8948 5.25803 29.6216 5.34351 29.6216C5.4451 29.6216 7.40121 28.1658 7.42138 28.0752C7.43357 28.0207 7.37265 27.8875 7.28602 27.7792C5.70127 25.7964 4.42075 22.967 3.95151 20.4117C3.62773 18.648 3.62597 16.2454 3.94711 14.3517C3.98312 14.1393 3.9375 14.035 3.54671 13.4368C2.99538 12.5927 2.64764 12.1605 2.52006 12.1605C2.46585 12.1605 2.38869 12.2452 2.34869 12.3488ZM34.9388 12.6966C34.7564 12.8445 34.5028 13.0764 34.3754 13.2119L34.1436 13.4583L34.2631 14.4014C34.3288 14.9201 34.4047 15.3682 34.4317 15.397C34.4586 15.4259 34.7299 15.2152 35.0346 14.9289C35.527 14.4661 35.5885 14.3813 35.5885 14.1656C35.5885 13.8328 35.3854 12.5498 35.3219 12.4824C35.2937 12.4523 35.1213 12.5487 34.9388 12.6966ZM38.5474 13.9599C38.0165 14.4583 37.9459 14.5571 38.1203 14.5571C38.1728 14.5571 38.5872 14.6663 39.0413 14.7998C39.9838 15.077 39.87 15.1022 40.563 14.4632C40.8352 14.2123 40.9468 14.066 40.9014 14.0196C40.8316 13.9481 39.2984 13.46 39.1547 13.4635C39.1103 13.4646 38.8371 13.6879 38.5474 13.9599ZM25.1229 15.3959C25.2023 15.6958 25.1646 17.4211 25.0661 17.989C24.8817 19.0529 24.5662 20.0367 24.1244 20.9253C23.4734 22.2348 23.0828 22.7888 22.3142 23.4931C21.6963 24.0592 21.209 24.2922 20.5537 24.3346C19.3318 24.4136 18.2995 23.63 17.011 21.6455C16.0919 20.2298 15.4672 18.4492 15.3759 16.9847L15.333 16.2968L17.119 16.2916C18.9669 16.286 20.2019 16.189 21.8022 15.9236C22.6085 15.7898 24.2531 15.4399 24.658 15.3158C24.9844 15.2158 25.0796 15.2322 25.1229 15.3959ZM36.938 15.5572C36.2545 16.1428 36.1173 16.2836 36.1745 16.3405C36.2517 16.4172 37.1668 16.6604 37.5851 16.7154C37.7712 16.7398 38.0038 16.7284 38.102 16.6902C38.3541 16.5919 39.1756 15.9171 39.1756 15.8083C39.1756 15.7585 39.0918 15.6853 38.9894 15.6456C38.6815 15.5262 37.5951 15.2422 37.4456 15.242C37.369 15.2419 37.1405 15.3838 36.938 15.5572ZM37.9735 17.9018C37.4427 18.0841 36.9947 18.2472 36.9779 18.2642C36.9611 18.2812 36.8699 18.6943 36.7752 19.1822C36.3355 21.4477 35.3536 23.8097 34.0481 25.7427C33.7467 26.1891 33.5141 26.5897 33.5315 26.6329C33.5488 26.6761 33.7674 26.8432 34.0174 27.0043C34.2673 27.1654 34.665 27.463 34.9012 27.6657C35.1374 27.8683 35.3883 28.0494 35.4589 28.0681C35.5619 28.0953 35.685 27.9455 36.0866 27.304C37.4219 25.171 38.1634 23.3789 38.7281 20.9192C38.9338 20.0233 39.1756 18.3022 39.1756 17.7339C39.1756 17.5064 39.0906 17.5182 37.9735 17.9018ZM25.9475 23.2705C25.9332 23.3177 25.9045 23.5718 25.8837 23.8355C25.8544 24.2068 25.7854 24.4382 25.5774 24.8626C25.1377 25.7595 24.4085 26.5351 22.4188 28.2222C22.1551 28.4458 21.5816 28.9486 21.1443 29.3394L20.3493 30.0502L20.0672 29.7775C19.9119 29.6276 19.1912 28.9997 18.4657 28.3821C15.8124 26.1238 15.2741 25.4363 15.1114 24.0979C15.0846 23.8783 15.0318 23.6784 14.9939 23.6537C14.8806 23.5801 14.1576 23.8789 13.8147 24.1412C13.4164 24.4458 13.1551 24.8688 13.0112 25.4424C12.8725 25.9948 12.9172 26.4368 13.1634 26.9469C13.6235 27.9001 17.1012 30.9962 18.6682 31.8477C19.4712 32.284 19.8621 32.3886 20.4898 32.3349C21.4044 32.2567 22.0528 31.8637 24.3654 29.986C26.5991 28.1723 27.6161 27.0164 27.8102 26.0709C27.9706 25.2886 27.7095 24.4654 27.1054 23.8496C26.6065 23.3409 26.0159 23.0456 25.9475 23.2705ZM29.0935 26.2618C29.0549 26.3347 29.0234 26.4379 29.0234 26.4912C29.0234 26.6353 28.3915 28.9358 28.1096 29.8182C27.5482 31.5751 26.3904 34.0722 25.2531 35.979C25.171 36.1168 25.1024 36.2482 25.1008 36.2712C25.0947 36.3587 27.4749 38.6201 29.1526 40.1206C29.6694 40.5829 30.0583 40.8515 30.2107 40.8515C30.324 40.8515 31.5552 40.1314 32.2383 39.6657C33.6078 38.7317 35.2049 37.389 36.5367 36.0516C37.5953 34.9886 38.7674 33.6243 38.7687 33.4535C38.77 33.2757 37.3925 31.7682 35.921 30.3374C34.7396 29.1886 32.8531 27.7768 31.5953 27.1C31.0354 26.7987 29.4013 26.1294 29.2256 26.1294C29.1915 26.1294 29.132 26.189 29.0935 26.2618ZM10.2758 28.0524C8.87334 28.8426 8.46875 29.0977 7.42213 29.8519C6.17612 30.7497 5.2631 31.5331 3.95205 32.829C3.15497 33.6169 2.42476 34.4505 2.42476 34.5727C2.42476 34.6578 3.88904 36.2987 4.29696 36.6707C4.47705 36.8349 4.79191 37.128 4.99664 37.322C7.10876 39.323 10.4092 41.3397 13.0507 42.2433C14.5162 42.7447 17.0246 43.2571 18.8036 43.4187C19.5892 43.4899 19.5906 43.3741 18.8184 42.1837C16.8315 39.1207 14.6532 35.4703 13.3651 33.0454C12.7208 31.8327 11.3476 29.0023 11.1225 28.4233C10.8714 27.7774 10.8109 27.7509 10.2758 28.0524ZM14.1336 30.7974C14.1336 30.8818 14.261 31.1372 14.4167 31.3648C14.7555 31.8601 15.9233 33.4203 16.136 33.6616C16.3755 33.9336 17.1205 34.8252 17.4515 35.2361C18.5363 36.5827 20.8437 39.0009 23.2028 41.2635C24.7412 42.7389 25.0961 43.0427 25.2815 43.0427C25.5717 43.0427 27.5139 42.2399 27.6629 42.0583C27.7208 41.9877 27.3472 41.5915 25.9606 40.2533C23.7416 38.1117 20.8404 35.2012 20.3693 34.6441C20.0754 34.2965 19.9398 34.1955 19.5944 34.0669C18.7635 33.7576 18.1623 33.446 17.1552 32.8027C15.9849 32.0551 15.9502 32.0304 15.0811 31.3256C14.7275 31.0388 14.3697 30.7682 14.2859 30.7241C14.1497 30.6524 14.1336 30.6601 14.1336 30.7974ZM26.3013 45.4354C25.1142 45.6722 24.5638 47.2749 25.3112 48.3188C25.5474 48.6487 26.2128 48.9999 26.6014 49C27.1959 49.0001 27.9 48.5928 28.1449 48.1072C28.4464 47.5093 28.3727 46.5544 27.9856 46.0408C27.6248 45.5623 26.9254 45.3109 26.3013 45.4354ZM5.62269 45.4852L5.40273 45.5165V47.1556C5.40273 48.0571 5.40273 48.8177 5.40273 48.846C5.40273 48.8743 5.56266 48.8974 5.75805 48.8974H6.11338L6.13301 48.3324L6.1527 47.7675L6.50525 47.7671C6.97645 47.7666 7.31621 47.6637 7.57563 47.4428C7.98104 47.0977 8.07802 46.5889 7.83519 46.0814C7.63052 45.6536 7.24555 45.4825 6.45178 45.4663C6.11676 45.4594 5.74371 45.468 5.62269 45.4852ZM10.363 45.4813C10.2301 45.54 9.81066 46.4943 9.25832 47.9947C8.90414 48.9568 8.904 48.9556 9.39801 48.9188C9.67794 48.898 9.69012 48.8869 9.82088 48.5379L9.9555 48.1784H10.6423H11.329L11.4336 48.5379L11.5381 48.8974L11.9222 48.9179C12.2355 48.9347 12.3062 48.9185 12.3062 48.8303C12.3062 48.6904 11.5688 46.7181 11.261 46.0348C11.1296 45.743 10.9813 45.5078 10.9289 45.5078C10.8768 45.5078 10.7466 45.4937 10.6395 45.4765C10.5325 45.4592 10.4081 45.4613 10.363 45.4813ZM17.3145 47.2062L17.3146 48.9388L17.6699 48.918L18.0252 48.8974L18.0446 48.2297C18.0591 47.7286 18.0865 47.5621 18.1542 47.5621C18.2039 47.5621 18.4991 47.8702 18.8103 48.2468L19.376 48.9316H19.7666C19.9814 48.9316 20.1561 48.9085 20.1548 48.8802C20.1474 48.7207 19.0578 47.3223 18.8543 47.2112C18.7892 47.1755 18.7359 47.1137 18.7359 47.0738C18.7359 47.0338 19.0412 46.6751 19.4144 46.2767C19.7876 45.8784 20.0693 45.5304 20.0404 45.5037C20.0116 45.477 19.8113 45.4709 19.5954 45.4902C19.2031 45.5254 19.2026 45.5256 18.6843 46.0986C18.3991 46.414 18.1417 46.6719 18.1124 46.6719C18.0831 46.6719 18.0591 46.4129 18.0591 46.0962V45.5205L17.6868 45.4971L17.3144 45.4736L17.3145 47.2062ZM30.0217 45.485L29.7679 45.5161V47.2275V48.9388L30.1232 48.918L30.4785 48.8974L30.4982 48.3324L30.5179 47.7675H30.7825C31.9956 47.7675 32.6376 46.9952 32.1944 46.0689C31.9962 45.6548 31.6384 45.4953 30.8539 45.4715C30.5358 45.4618 30.1613 45.4679 30.0217 45.485ZM39.0689 45.4991C38.3744 45.6825 38.0561 46.088 38.1082 46.7232C38.1346 47.0457 38.1731 47.1307 38.3843 47.3322L38.6297 47.5665L38.4044 47.9238C38.1769 48.2846 37.8896 48.8265 37.8896 48.8946C37.8896 48.915 38.0528 48.9316 38.2523 48.9316H38.6149L38.8715 48.5036C39.3467 47.7108 39.4036 47.653 39.6768 47.6853L39.9201 47.714V48.3264V48.9388L40.2754 48.918L40.6307 48.8974L40.6488 47.2446C40.6651 45.7604 40.6555 45.5875 40.555 45.5484C40.3689 45.4761 39.2914 45.4405 39.0689 45.4991ZM1.34187 45.8116V46.1181L1.83255 46.1382L2.32324 46.1584L2.34158 47.5098L2.35992 48.8612L2.51952 48.9017C2.6073 48.9241 2.76655 48.9322 2.87342 48.9198L3.06773 48.8974L3.10157 47.5279L3.13541 46.1584L3.63693 46.1241L4.13852 46.0899L4.14454 45.816L4.15063 45.5421L2.74625 45.5236L1.34187 45.505V45.8116ZM13.5921 47.1782C13.5921 48.6381 13.6056 48.8537 13.6992 48.89C13.7581 48.9129 14.2911 48.9316 14.8836 48.9316H15.961V48.5892V48.2468H15.1488H14.3366V47.836V47.4251H15.0134H15.6902V47.117V46.8089H15.0134H14.3366V46.4688V46.1286L15.098 46.1093L15.8594 46.0899L15.8802 45.7989L15.9011 45.5078H14.7466H13.5921V47.1782ZM21.1047 45.8116V46.1181L21.5954 46.1382L22.0861 46.1584L22.1044 47.545L22.1227 48.9316H22.4922H22.8617L22.8799 47.545L22.8983 46.1584L23.4059 46.1241L23.9135 46.0899V45.816V45.5421L22.5091 45.5236L21.1047 45.505V45.8116ZM33.6415 47.2026L33.6596 48.8974L33.9345 48.9178L34.2096 48.9382L34.7404 48.1303C35.0323 47.686 35.3806 47.1864 35.5144 47.0203L35.7577 46.7181L35.7915 47.8078L35.8254 48.8974L36.1807 48.918L36.536 48.9388V47.2233V45.5078L36.2145 45.5087C35.9026 45.5096 35.8828 45.5224 35.5483 45.9367C35.3588 46.1716 35.0354 46.6015 34.8297 46.8921C34.624 47.1827 34.4365 47.4009 34.413 47.3771C34.3894 47.3533 34.3702 46.923 34.3702 46.4208V45.5078H33.9968H33.6233L33.6415 47.2026ZM26.9292 46.124C27.2972 46.2275 27.4918 46.5428 27.5226 47.0855C27.5659 47.8471 27.2356 48.3148 26.6546 48.3148C26.1131 48.3148 25.7573 47.8577 25.7653 47.1727C25.7715 46.6512 25.9843 46.2939 26.3853 46.1321C26.6031 46.0441 26.6425 46.0435 26.9292 46.124ZM7.1001 46.2646C7.13523 46.3191 7.15594 46.4868 7.14626 46.6372C7.12575 46.9549 6.97936 47.056 6.48563 47.0937L6.18106 47.117L6.16103 46.6124L6.14099 46.1077L6.58864 46.1366C6.87919 46.1553 7.05875 46.2003 7.1001 46.2646ZM31.3771 46.2307C31.4891 46.31 31.5276 46.406 31.5276 46.6058C31.5276 46.9397 31.3631 47.065 30.8846 47.0954L30.5462 47.117L30.5263 46.6206L30.5064 46.1241H30.8666C31.083 46.1241 31.2868 46.1666 31.3771 46.2307ZM39.9201 46.5692V47.0143H39.514C38.9472 47.0143 38.709 46.7682 38.9092 46.3897C39.0042 46.2101 39.2058 46.1338 39.5986 46.1284L39.9201 46.1241V46.5692ZM10.7887 46.6548C10.8537 46.8337 10.9476 47.0839 10.9974 47.211C11.0472 47.338 11.0879 47.4703 11.0879 47.5051C11.0879 47.5399 10.8823 47.5592 10.6311 47.5481C10.3701 47.5366 10.1814 47.4985 10.191 47.4594C10.2544 47.199 10.5889 46.3296 10.6255 46.3296C10.6503 46.3295 10.7238 46.4759 10.7887 46.6548Z" fill="white"/>
</svg>
