<svg width="118" height="136" viewBox="0 0 118 136" fill="none" xmlns="http://www.w3.org/2000/svg">
<path fill-rule="evenodd" clip-rule="evenodd" d="M55.1109 0.0274707C54.954 0.0563588 53.8251 0.186165 52.6022 0.315781C51.3794 0.445208 50.2904 0.605992 50.1822 0.672701C50.0506 0.754234 50.1158 1.57564 50.3801 3.16145C50.5971 4.46332 50.7908 5.54605 50.8108 5.56753C50.8306 5.58881 52.8008 5.54529 55.1887 5.47079C61.9225 5.26059 64.3855 5.49968 69.8476 6.89353C73.6541 7.86489 75.9156 8.68706 79.1651 10.2807C84.1868 12.7432 88.0364 15.501 92.0098 19.4821C94.7847 22.2624 96.1998 23.9662 98.2085 26.9447C99.0062 28.1274 99.718 29.1187 99.7902 29.1476C100.057 29.2544 103.6 26.1598 103.6 25.82C103.6 25.4707 100.774 21.3815 99.3704 19.6997C95.5983 15.1795 90.0564 10.2885 85.9521 7.85767C78.3442 3.3515 71.49 1.03418 63.6677 0.323384C61.5097 0.127249 55.6648 -0.074778 55.1109 0.0274707ZM44.3673 1.96069C43.5815 2.15512 37.4276 4.66819 36.0959 5.33832C33.9356 6.42581 29.8563 8.90163 28.1923 10.1353C22.1021 14.6509 16.548 20.4337 16.5143 22.2941C16.5069 22.7086 17.7248 23.9202 18.505 24.2745C19.8203 24.8716 19.9068 24.8241 22.2799 22.1993C26.561 17.4639 30.7571 14.138 36.1908 11.173C38.4466 9.94217 41.7307 8.49986 43.0059 8.18C43.4381 8.07148 43.7225 7.63056 44.856 5.31114C46.3293 2.2969 46.3997 1.80637 45.3529 1.84457C45.0199 1.85673 44.5765 1.909 44.3673 1.96069ZM46.6805 6.43132C45.0133 8.65399 43.5737 13.7957 42.6611 20.787C41.7125 28.0567 39.428 32.2653 35.0239 34.8572C32.9621 36.0705 29.2028 37.453 26.398 38.029C23.9865 38.5243 22.4049 39.0855 22.4049 39.4459C22.4049 40.2357 27.5943 42.4086 33.0533 43.9047L36.0007 44.7124L35.9355 47.832C35.8657 51.1634 36.0049 52.139 36.783 53.7751C37.7219 55.749 39.5926 57.6522 41.2915 58.3617C42.1044 58.7011 42.2515 58.9125 42.315 59.8316C42.3919 60.9428 43.0196 62.5105 44.4018 65.044C46.0335 68.0344 47.1261 69.4979 49.494 71.8646C51.3159 73.6855 56.7692 78.4104 57.0518 78.4129C57.1257 78.4135 58.4948 77.3239 60.0942 75.9916C66.1505 70.9466 69.9148 66.6328 71.3574 63.0843C71.9309 61.6737 72.5328 59.2945 72.6976 57.786C72.8087 56.7692 72.8832 56.6117 73.3504 56.4049C74.4084 55.937 76.1388 54.1476 76.8597 52.7766C78.0165 50.5761 78.36 48.9398 78.359 45.6298C78.3586 44.0619 78.2702 42.2231 78.1626 41.5437C78.0185 40.6348 78.0245 40.2524 78.1856 40.0968C78.306 39.9805 79.3617 39.4563 80.5315 38.9318C83.1474 37.7591 86.4384 35.8888 89.3638 33.9125C92.0324 32.1094 92.2239 31.9152 91.7078 31.5349C91.3981 31.3066 90.7052 31.2812 87.6268 31.3844C82.387 31.56 80.4218 31.3283 78.3117 30.2862C76.9038 29.5908 76.3693 29.1645 74.2044 27.0105C72.8355 25.6484 70.6862 23.3793 69.4282 21.9682C66.0081 18.1316 62.1556 14.5574 58.3963 11.733C56.4106 10.2411 55.5566 9.73901 55.2229 9.86691C55.0772 9.92298 54.8639 10.4063 54.7492 10.9413C54.309 12.9927 54.6142 16.5384 55.4667 19.2761C55.6675 19.9205 55.7641 20.4478 55.6815 20.4478C55.3362 20.4478 51.6857 16.3842 50.6572 14.8549C48.916 12.2663 47.7096 9.07059 47.6982 7.01706C47.6944 6.31349 47.5307 5.81364 47.304 5.81364C47.216 5.81364 46.9353 6.09169 46.6805 6.43132ZM0.0447494 8.5219C0.821708 11.2444 0.959568 12.2348 0.857837 14.366C0.800412 15.5681 0.62034 16.9793 0.457381 17.5019C0.294421 18.0246 0.16036 18.5449 0.159219 18.6582C0.158078 18.7713 0.821902 19.2968 1.63442 19.8257C3.57187 21.0869 6.70081 24.157 7.9328 26.0053C9.42302 28.2411 10.9001 31.1508 11.9237 33.8676C13.2264 37.3256 13.5309 38.5066 14.4898 43.8243C15.4729 49.2762 16.8456 55.5441 17.9237 59.5037C18.54 61.7671 19.5252 64.5719 20.9279 68.0561C23.2293 73.772 24.1282 75.5663 24.6867 75.5587C25.2193 75.5516 26.5882 74.823 26.5882 74.5468C26.5882 74.3955 26.3315 73.7547 26.0177 73.1227C25.704 72.4906 25.4473 71.9248 25.4473 71.8654C25.4473 71.8061 24.9732 70.6319 24.3938 69.2563C22.8287 65.5408 20.9875 59.8492 19.8249 55.1325C18.5315 49.8847 18.2326 48.2033 17.2736 40.7835C16.8481 37.4908 16.3293 34.0698 16.1207 33.1813C15.0603 28.6643 13.497 25.1569 11.1083 21.9349C10.2099 20.7229 9.47455 19.675 9.47455 19.6062C9.47455 19.5376 10.0522 19.9378 10.7581 20.496C11.4639 21.0542 12.3251 21.7089 12.6718 21.9513L13.3021 22.3916L13.7651 21.9568C14.0199 21.7175 14.2283 21.4051 14.2283 21.2623C14.2283 20.3561 11.7132 17.0325 8.88052 14.1956C5.86643 11.1768 1.53706 8.09429 0.311343 8.09429C-0.00107554 8.09429 -0.0533687 8.1781 0.0447494 8.5219ZM115.247 26.7321C114.593 26.817 112.502 27.0219 110.6 27.1874C108.697 27.353 107.106 27.5223 107.065 27.5635C106.938 27.6909 107.794 30.9282 108.28 32.159L108.74 33.3225L107.263 34.747C106.451 35.5304 105.316 36.5793 104.74 37.0776C104.165 37.5761 102.625 38.9852 101.318 40.2089C100.01 41.4325 98.2563 43.0113 97.4196 43.7173C96.5829 44.4232 95.0855 45.7857 94.0919 46.7451C93.0984 47.7043 91.1303 49.5563 89.7185 50.8605C88.3066 52.1648 87.1086 53.2772 87.0564 53.3327C87.0041 53.388 84.8858 55.3423 82.349 57.6754C79.5522 60.2476 77.6908 62.1002 77.6201 62.3813C77.4773 62.95 77.9277 63.5038 78.6518 63.6497C78.9342 63.7067 79.3124 63.8103 79.4927 63.8799C79.7323 63.9726 80.2427 63.6062 81.3942 62.5147C82.2598 61.6943 83.7382 60.3396 84.6795 59.5045C85.6207 58.6692 87.7215 56.7453 89.3479 55.2288C92.9149 51.9029 95.7584 49.2939 98.5605 46.7755C99.7109 45.7414 101.294 44.2899 102.078 43.5499C104.158 41.5876 108.864 37.192 109.989 36.1612C110.523 35.672 111.108 35.2719 111.288 35.2719C111.579 35.2719 115.39 36.3784 116.164 36.6878C116.421 36.7906 116.524 36.3183 116.892 33.3315C117.275 30.225 117.677 27.8194 117.974 26.8621C118.062 26.5785 117.956 26.5331 117.256 26.5536C116.804 26.5669 115.9 26.6471 115.247 26.7321ZM19.7657 27.9562C19.517 28.3213 19.2419 28.62 19.1544 28.62C19.0671 28.62 18.9106 28.7784 18.8072 28.9718C18.6509 29.2638 18.7389 29.4038 19.3233 29.7929C19.7108 30.0508 21.5522 31.2973 23.4151 32.5631L26.8023 34.8643L27.7886 34.5767C28.8533 34.2663 29.6306 33.8437 29.6306 33.5747C29.6306 33.4824 28.1117 32.3428 26.2554 31.0425C21.6684 27.8292 20.841 27.2895 20.5058 27.291C20.3476 27.2918 20.0145 27.5911 19.7657 27.9562ZM102.928 30.9598L101.421 32.3628L101.848 34.7202C102.083 36.0165 102.274 37.2272 102.272 37.41C102.27 37.5928 102.325 37.7426 102.395 37.7426C102.538 37.7426 105.048 35.5899 105.531 35.0537C105.879 34.6666 105.858 34.2914 105.327 31.3775C105.107 30.1695 104.931 29.6524 104.726 29.6129C104.566 29.5821 103.757 30.1882 102.928 30.9598ZM6.5987 34.2741C6.2918 35.0592 5.14765 40.426 4.82611 42.589C4.20241 46.784 4.07083 49.4121 4.30833 52.9288C4.67836 58.409 5.65726 63.1491 7.47131 68.2462C8.45705 71.016 10.5964 75.5469 12.2451 78.3562C13.3257 80.1979 14.7726 82.2151 15.0127 82.2151C15.2981 82.2151 20.7939 78.1746 20.8506 77.9231C20.8848 77.7718 20.7136 77.402 20.4702 77.1013C16.0179 71.5981 12.4202 63.7451 11.1019 56.6529C10.1922 51.7577 10.1872 45.0893 11.0895 39.8332C11.1907 39.2438 11.0625 38.9544 9.96457 37.2941C8.4156 34.9513 7.4386 33.7515 7.08016 33.7515C6.92785 33.7515 6.71108 33.9868 6.5987 34.2741ZM98.1614 35.2394C97.6489 35.6499 96.9364 36.2936 96.5784 36.6698L95.9273 37.3538L96.2629 39.9714C96.4475 41.411 96.6607 42.6545 96.7366 42.7345C96.8123 42.8147 97.5746 42.23 98.4305 41.4353C99.814 40.1508 99.9867 39.9155 99.9867 39.3168C99.9867 38.393 99.416 34.8321 99.2378 34.6449C99.1585 34.5615 98.674 34.8291 98.1614 35.2394ZM108.3 38.7459C106.808 40.1293 106.61 40.4034 107.1 40.4034C107.247 40.4034 108.412 40.7065 109.687 41.0771C112.335 41.8462 112.016 41.9162 113.963 40.1428C114.727 39.4464 115.041 39.0403 114.914 38.9114C114.717 38.713 110.41 37.3583 110.006 37.368C109.881 37.3711 109.114 37.991 108.3 38.7459ZM70.5835 42.7315C70.8066 43.5638 70.7005 48.3525 70.4238 49.9286C69.9056 52.8815 69.0193 55.612 67.778 58.0783C65.949 61.7129 64.8518 63.2506 62.6922 65.2053C60.9563 66.7767 59.5871 67.4232 57.746 67.5409C54.313 67.7602 51.4128 65.5854 47.7927 60.0773C45.2105 56.1481 43.4554 51.206 43.1989 47.1413L43.0783 45.232L48.0962 45.2174C53.2879 45.202 56.7576 44.9327 61.2539 44.1961C63.519 43.8249 68.1397 42.8535 69.2772 42.5091C70.1943 42.2317 70.4616 42.2771 70.5835 42.7315ZM103.778 43.1793C101.858 44.8046 101.472 45.1952 101.633 45.3531C101.85 45.5662 104.421 46.2412 105.596 46.3936C106.119 46.4615 106.773 46.4299 107.049 46.3237C107.757 46.051 110.065 44.1782 110.065 43.8762C110.065 43.7378 109.829 43.5347 109.542 43.4246C108.677 43.0932 105.624 42.3048 105.204 42.3045C104.989 42.3041 104.347 42.6979 103.778 43.1793ZM106.688 49.6867C105.196 50.1926 103.937 50.6453 103.89 50.6925C103.843 50.7396 103.587 51.8862 103.321 53.2405C102.085 59.5282 99.3268 66.0841 95.659 71.4491C94.8121 72.6881 94.1587 73.7999 94.2076 73.9198C94.2562 74.0398 94.8704 74.5037 95.5727 74.9507C96.2747 75.3979 97.392 76.2238 98.0557 76.7864C98.7193 77.3488 99.4244 77.8513 99.6225 77.9032C99.9121 77.9788 100.258 77.563 101.386 75.7825C105.138 69.8624 107.221 64.8883 108.808 58.0614C109.385 55.5747 110.065 50.7979 110.065 49.2205C110.065 48.5891 109.826 48.622 106.688 49.6867ZM72.9001 64.5876C72.8598 64.7184 72.7792 65.4239 72.7208 66.1556C72.6385 67.1862 72.4447 67.8284 71.8602 69.0064C70.625 71.4957 68.5763 73.6484 62.9862 78.331C62.2454 78.9515 60.634 80.3471 59.4055 81.4319L57.172 83.4046L56.3792 82.6478C55.943 82.2316 53.9183 80.4888 51.8798 78.7747C44.4253 72.507 42.9131 70.5988 42.4558 66.8841C42.3806 66.2744 42.2321 65.7196 42.1256 65.6512C41.8073 65.4469 39.7761 66.2763 38.8126 67.0042C37.6936 67.8495 36.9596 69.0235 36.5552 70.6156C36.1655 72.1489 36.2912 73.3755 36.983 74.7914C38.2755 77.437 48.0462 86.0302 52.4488 88.3935C54.7047 89.6045 55.803 89.8948 57.5667 89.7458C60.1362 89.5287 61.9579 88.438 68.4552 83.2264C74.7307 78.1926 77.5881 74.9843 78.1333 72.3601C78.5841 70.1887 77.8505 67.9039 76.1533 66.1947C74.7515 64.7828 73.0922 63.9633 72.9001 64.5876ZM81.7388 72.8899C81.6306 73.0921 81.542 73.3786 81.542 73.5266C81.542 73.9265 79.7667 80.3115 78.9745 82.7607C77.3972 87.6371 74.1445 94.5676 70.9492 99.8602C70.7185 100.242 70.5259 100.607 70.5214 100.671C70.5041 100.914 77.1915 107.19 81.905 111.355C83.3569 112.638 84.4496 113.384 84.8776 113.384C85.1961 113.384 88.6551 111.385 90.5742 110.092C94.4221 107.5 98.9089 103.774 102.651 100.061C105.625 97.1113 108.918 93.3245 108.921 92.8507C108.925 92.3569 105.055 88.1731 100.921 84.2017C97.6018 81.0134 92.3017 77.0947 88.7677 75.2162C87.1948 74.3801 82.6036 72.5224 82.1101 72.5224C82.0141 72.5224 81.8471 72.6877 81.7388 72.8899ZM28.87 77.8598C24.9299 80.0528 23.7931 80.761 20.8526 82.8542C17.352 85.3462 14.7868 87.5204 11.1034 91.1172C8.86398 93.3041 6.81243 95.6178 6.81243 95.9569C6.81243 96.1931 10.9264 100.747 12.0724 101.78C12.5784 102.236 13.463 103.049 14.0382 103.588C19.9722 109.141 29.245 114.739 36.6662 117.247C40.7836 118.638 47.8311 120.061 52.8291 120.509C55.0364 120.707 55.0402 120.385 52.8707 117.081C47.2886 108.58 41.1684 98.4481 37.5495 91.7178C35.7394 88.3519 31.8814 80.4962 31.249 78.8892C30.5435 77.0966 30.3735 77.023 28.87 77.8598ZM39.7086 85.4785C39.7086 85.7128 40.0665 86.4215 40.504 87.0533C41.4559 88.4281 44.737 92.7583 45.3345 93.4282C46.0074 94.1831 48.1006 96.6578 49.0304 97.7981C52.0782 101.536 58.5608 108.247 65.1889 114.527C69.5111 118.622 70.508 119.466 71.0289 119.466C71.8442 119.466 77.301 117.237 77.7195 116.733C77.8821 116.537 76.8325 115.438 72.937 111.724C66.7027 105.779 58.5517 97.7014 57.228 96.1551C56.4022 95.1904 56.0213 94.9101 55.051 94.5532C52.7165 93.6945 51.0274 92.8298 48.198 91.0442C44.91 88.9694 44.8125 88.9008 42.3708 86.9446C41.3772 86.1486 40.3719 85.3973 40.1365 85.2749C39.7539 85.076 39.7086 85.0974 39.7086 85.4785ZM73.8941 126.106C70.5588 126.764 69.0125 131.212 71.1125 134.109C71.776 135.025 73.6453 136 74.7374 136C76.4075 136 78.3858 134.87 79.0738 133.522C79.9207 131.863 79.7138 129.212 78.6262 127.787C77.6127 126.459 75.6475 125.761 73.8941 126.106ZM15.7971 126.245L15.1791 126.332V130.881C15.1791 133.383 15.1791 135.494 15.1791 135.573C15.1791 135.651 15.6284 135.715 16.1774 135.715H17.1757L17.2308 134.147L17.2862 132.579L18.2767 132.578C19.6005 132.577 20.5551 132.291 21.2839 131.678C22.4229 130.72 22.6954 129.308 22.0131 127.899C21.4381 126.712 20.3565 126.237 18.1264 126.192C17.1852 126.173 16.1371 126.197 15.7971 126.245ZM29.1151 126.234C28.7416 126.397 27.5633 129.045 26.0115 133.21C25.0164 135.88 25.016 135.877 26.4039 135.775C27.1904 135.717 27.2246 135.686 27.592 134.717L27.9702 133.72H29.8997H31.8291L32.1229 134.717L32.4167 135.715L33.4956 135.772C34.376 135.819 34.5745 135.774 34.5745 135.529C34.5745 135.141 32.5028 129.666 31.638 127.77C31.269 126.96 30.8523 126.307 30.705 126.307C30.5585 126.307 30.1927 126.268 29.8921 126.22C29.5914 126.173 29.2417 126.178 29.1151 126.234ZM48.6456 131.021L48.6458 135.83L49.644 135.773L50.6423 135.715L50.6967 133.862C50.7376 132.471 50.8144 132.009 51.0048 132.009C51.1443 132.009 51.9738 132.864 52.8479 133.91L54.4374 135.81H55.5347C56.1383 135.81 56.6291 135.746 56.6255 135.668C56.6045 135.225 53.5435 131.343 52.9717 131.035C52.7888 130.936 52.6389 130.765 52.6389 130.654C52.6389 130.543 53.4967 129.547 54.5452 128.442C55.5937 127.336 56.3851 126.37 56.3041 126.296C56.2231 126.222 55.6604 126.205 55.0539 126.258C53.9515 126.356 53.9502 126.357 52.494 127.947C51.6927 128.822 50.9696 129.538 50.8873 129.538C50.8049 129.538 50.7374 128.819 50.7374 127.941V126.343L49.6914 126.278L48.6452 126.212L48.6456 131.021ZM84.3467 126.244L83.6336 126.33V131.08V135.83L84.6319 135.773L85.6302 135.715L85.6853 134.147L85.7407 132.579H86.4842C89.8925 132.579 91.696 130.436 90.4509 127.865C89.8942 126.715 88.8888 126.273 86.6848 126.207C85.7911 126.18 84.739 126.197 84.3467 126.244ZM109.765 126.283C107.814 126.792 106.92 127.918 107.066 129.681C107.14 130.576 107.248 130.812 107.842 131.371L108.531 132.021L107.898 133.013C107.259 134.014 106.452 135.518 106.452 135.708C106.452 135.764 106.91 135.81 107.471 135.81H108.489L109.21 134.622C110.546 132.422 110.705 132.261 111.473 132.351L112.156 132.431V134.13V135.83L113.155 135.773L114.153 135.715L114.204 131.128C114.25 127.008 114.223 126.528 113.94 126.42C113.417 126.219 110.39 126.12 109.765 126.283ZM3.77001 127.151V128.001L5.14861 128.057L6.5272 128.113L6.57873 131.864L6.63026 135.615L7.07864 135.727C7.32527 135.789 7.7727 135.812 8.07294 135.777L8.61887 135.715L8.71395 131.914L8.80902 128.113L10.218 128.018L11.6273 127.923L11.6442 127.163L11.6613 126.402L7.71565 126.351L3.77001 126.3V127.151ZM38.1874 130.943C38.1874 134.996 38.2253 135.594 38.4882 135.695C38.6537 135.758 40.1511 135.81 41.8159 135.81H44.8427V134.86V133.91H42.5609H40.2791V132.769V131.629H42.1806H44.0821V130.774V129.918H42.1806H40.2791V128.974V128.03L42.4183 127.977L44.5575 127.923L44.6159 127.115L44.6744 126.307H41.4308H38.1874V130.943ZM59.2942 127.151V128.001L60.6728 128.057L62.0514 128.113L62.103 131.962L62.1543 135.81H63.1923H64.2304L64.2817 131.962L64.3332 128.113L65.7594 128.018L67.1855 127.923V127.163V126.402L63.2399 126.351L59.2942 126.3V127.151ZM94.5166 131.011L94.5673 135.715L95.3399 135.772L96.1127 135.829L97.6039 133.586C98.4242 132.353 99.4027 130.966 99.7786 130.505L100.462 129.667L100.557 132.691L100.652 135.715L101.65 135.773L102.649 135.83V131.069V126.307L101.746 126.31C100.869 126.312 100.814 126.348 99.8739 127.498C99.3413 128.15 98.4327 129.343 97.8549 130.149C97.277 130.956 96.7503 131.562 96.6841 131.496C96.6179 131.43 96.5639 130.235 96.5639 128.841V126.307H95.5148H94.4656L94.5166 131.011ZM75.6581 128.018C76.6921 128.305 77.2388 129.18 77.3255 130.686C77.447 132.8 76.5191 134.098 74.8867 134.098C73.3654 134.098 72.3656 132.83 72.3883 130.928C72.4056 129.481 73.0036 128.489 74.13 128.04C74.7421 127.796 74.8528 127.794 75.6581 128.018ZM19.9479 128.408C20.0466 128.559 20.1048 129.025 20.0776 129.442C20.02 130.324 19.6087 130.604 18.2215 130.709L17.3658 130.774L17.3096 129.373L17.2533 127.973L18.5109 128.053C19.3273 128.105 19.8317 128.229 19.9479 128.408ZM88.1548 128.314C88.4694 128.534 88.5776 128.8 88.5776 129.355C88.5776 130.281 88.1153 130.629 86.7711 130.714L85.8204 130.774L85.7645 129.396L85.7085 128.018H86.7205C87.3285 128.018 87.901 128.136 88.1548 128.314ZM112.156 129.253V130.489H111.015C109.423 130.489 108.754 129.806 109.316 128.755C109.583 128.257 110.15 128.045 111.253 128.03L112.156 128.018V129.253ZM30.3112 129.491C30.4937 129.987 30.7574 130.682 30.8974 131.034C31.0373 131.387 31.1518 131.754 31.1518 131.851C31.1518 131.947 30.5741 132.001 29.8683 131.97C29.1351 131.938 28.6049 131.833 28.6317 131.724C28.8101 131.001 29.7496 128.588 29.8525 128.588C29.9223 128.588 30.1288 128.994 30.3112 129.491Z" fill="white"/>
</svg>
