<svg width="26" height="26" viewBox="0 0 26 26" fill="none" xmlns="http://www.w3.org/2000/svg">
<path fill-rule="evenodd" clip-rule="evenodd" d="M12.1431 0.00592459C12.1085 0.0121549 11.8598 0.0401501 11.5903 0.0681044C11.3209 0.0960178 11.0809 0.130694 11.0571 0.145081C11.0281 0.162665 11.0425 0.339819 11.1007 0.681829C11.1485 0.962602 11.1912 1.19611 11.1956 1.20075C11.2 1.20534 11.6341 1.19595 12.1602 1.17988C13.6439 1.13455 14.1866 1.18611 15.3902 1.48673C16.2289 1.69622 16.7272 1.87354 17.4431 2.21723C18.5496 2.74832 19.3978 3.34311 20.2733 4.2017C20.8848 4.80132 21.1966 5.16878 21.6392 5.81116C21.8149 6.06623 21.9718 6.28003 21.9877 6.28626C22.0465 6.3093 22.827 5.64188 22.827 5.56859C22.827 5.49325 22.2044 4.61134 21.8952 4.24863C21.064 3.27375 19.8429 2.21891 18.9386 1.69466C17.2623 0.722818 15.752 0.223042 14.0285 0.069744C13.553 0.0274436 12.2651 -0.0161274 12.1431 0.00592459ZM9.77586 0.422862C9.60269 0.464793 8.24675 1.00679 7.95334 1.15131C7.47734 1.38585 6.57851 1.91981 6.21186 2.18587C4.86996 3.15976 3.64617 4.40693 3.63875 4.80817C3.63712 4.89756 3.90547 5.15886 4.07738 5.23527C4.36719 5.36405 4.38625 5.35381 4.90913 4.78771C5.85242 3.76644 6.77698 3.04913 7.97425 2.40967C8.47128 2.14423 9.1949 1.83316 9.47587 1.76418C9.5711 1.74077 9.63378 1.64568 9.88353 1.14545C10.2082 0.495371 10.2237 0.389579 9.99301 0.397818C9.91965 0.400441 9.82194 0.411713 9.77586 0.422862ZM10.2855 1.38704C9.91818 1.8664 9.60098 2.97531 9.39991 4.48313C9.19088 6.05099 8.68752 6.95864 7.71712 7.51764C7.26283 7.77932 6.43451 8.07747 5.81652 8.2017C5.28517 8.30852 4.93666 8.42956 4.93666 8.50728C4.93666 8.67763 6.08009 9.14625 7.28294 9.46891L7.93235 9.64312L7.91798 10.3159C7.90261 11.0344 7.93328 11.2448 8.10472 11.5977C8.31161 12.0234 8.7238 12.4338 9.09812 12.5868C9.27723 12.6601 9.30966 12.7056 9.32365 12.9039C9.34058 13.1435 9.47888 13.4816 9.78344 14.028C10.143 14.673 10.3837 14.9886 10.9055 15.499C11.3069 15.8917 12.5085 16.9107 12.5707 16.9113C12.587 16.9114 12.8887 16.6764 13.2411 16.3891C14.5755 15.301 15.4049 14.3707 15.7228 13.6054C15.8492 13.3012 15.9818 12.788 16.0181 12.4627C16.0426 12.2434 16.059 12.2094 16.162 12.1648C16.3951 12.0639 16.7763 11.678 16.9352 11.3823C17.1901 10.9077 17.2658 10.5548 17.2655 9.84097C17.2655 9.50281 17.246 9.10625 17.2223 8.95971C17.1905 8.7637 17.1918 8.68123 17.2273 8.64766C17.2539 8.62258 17.4865 8.50953 17.7442 8.3964C18.3206 8.1435 19.0457 7.74013 19.6903 7.31389C20.2783 6.92503 20.3205 6.88314 20.2068 6.80112C20.1386 6.75189 19.9859 6.7464 19.3076 6.76866C18.1531 6.80653 17.7201 6.75657 17.2551 6.53182C16.9449 6.38185 16.8271 6.28991 16.3501 5.82534C16.0485 5.53158 15.5749 5.04221 15.2977 4.73787C14.5442 3.91043 13.6953 3.1396 12.867 2.53046C12.4295 2.2087 12.2413 2.10041 12.1678 2.12799C12.1357 2.14009 12.0887 2.24432 12.0634 2.3597C11.9664 2.80214 12.0336 3.56682 12.2215 4.15726C12.2657 4.29626 12.287 4.40996 12.2688 4.40996C12.1927 4.40996 11.3884 3.53358 11.1618 3.20374C10.7781 2.64548 10.5123 1.95625 10.5098 1.51337C10.5089 1.36163 10.4729 1.25383 10.4229 1.25383C10.4035 1.25383 10.3417 1.31379 10.2855 1.38704ZM0.00986004 1.83792C0.181054 2.42508 0.21143 2.63867 0.189015 3.09832C0.176362 3.35757 0.136685 3.66192 0.100779 3.77463C0.0648724 3.88735 0.0353335 3.99958 0.0350821 4.02401C0.0348307 4.0484 0.181097 4.16173 0.360126 4.2758C0.787023 4.54781 1.47645 5.20994 1.74791 5.60855C2.07626 6.09074 2.40172 6.71828 2.62726 7.30422C2.9143 8.05001 2.98138 8.30471 3.19267 9.45158C3.40928 10.6274 3.71174 11.9792 3.9493 12.8331C4.08509 13.3213 4.30216 13.9262 4.61124 14.6776C5.11833 15.9104 5.31638 16.2974 5.43944 16.2957C5.55679 16.2942 5.85841 16.137 5.85841 16.0775C5.85841 16.0449 5.80185 15.9066 5.73272 15.7704C5.66359 15.634 5.60703 15.512 5.60703 15.4992C5.60703 15.4864 5.50258 15.2332 5.37491 14.9365C5.03005 14.1352 4.62436 12.9077 4.36819 11.8904C4.0832 10.7586 4.01734 10.396 3.80605 8.79576C3.71228 8.08563 3.59799 7.34783 3.55202 7.15621C3.31836 6.18203 2.97392 5.42558 2.4476 4.7307C2.24963 4.46931 2.08761 4.2433 2.08761 4.22846C2.08761 4.21367 2.2149 4.29999 2.37042 4.42037C2.52595 4.54075 2.7157 4.68196 2.79208 4.73422L2.93097 4.82919L3.03299 4.73541C3.08914 4.68381 3.13506 4.61642 3.13506 4.58564C3.13506 4.3902 2.58088 3.67339 1.95672 3.06155C1.2926 2.41049 0.338674 1.74569 0.0686011 1.74569C-0.000236988 1.74569 -0.0117592 1.76377 0.00986004 1.83792ZM25.3933 5.76529C25.2494 5.78362 24.7886 5.8278 24.3694 5.8635C23.9502 5.8992 23.5997 5.93573 23.5906 5.94462C23.5626 5.97208 23.7512 6.67028 23.8584 6.93573L23.9597 7.18666L23.6343 7.49387C23.4553 7.66283 23.2051 7.88904 23.0784 7.99652C22.9517 8.10403 22.6123 8.40792 22.3242 8.67185C22.0362 8.93573 21.6497 9.27623 21.4653 9.4285C21.281 9.58073 20.951 9.87458 20.7321 10.0815C20.5132 10.2884 20.0796 10.6878 19.7685 10.9691C19.4574 11.2504 19.1934 11.4903 19.1819 11.5022C19.1704 11.5142 18.7036 11.9357 18.1447 12.4388C17.5285 12.9936 17.1183 13.3931 17.1027 13.4538C17.0713 13.5764 17.1705 13.6958 17.3301 13.7273C17.3923 13.7396 17.4756 13.762 17.5153 13.777C17.5681 13.797 17.6806 13.7179 17.9343 13.4825C18.125 13.3056 18.4508 13.0134 18.6582 12.8333C18.8656 12.6532 19.3285 12.2382 19.6868 11.9112C20.4728 11.1939 21.0993 10.6312 21.7167 10.088C21.9702 9.86503 22.319 9.552 22.4918 9.39239C22.95 8.96918 23.987 8.02119 24.2349 7.79887C24.3526 7.69336 24.4813 7.60708 24.5212 7.60708C24.5853 7.60708 25.4249 7.84572 25.5954 7.91245C25.6521 7.93462 25.6747 7.83277 25.7558 7.18859C25.8403 6.51863 25.9289 5.99979 25.9942 5.79333C26.0136 5.73217 25.9902 5.72238 25.836 5.72681C25.7365 5.72967 25.5373 5.74697 25.3933 5.76529ZM4.35516 6.0293C4.30036 6.10804 4.23973 6.17248 4.22046 6.17248C4.20123 6.17248 4.16675 6.20662 4.14396 6.24835C4.10952 6.31131 4.12892 6.34151 4.25767 6.42542C4.34305 6.48104 4.74879 6.74988 5.15927 7.02287L5.90559 7.51916L6.12291 7.45715C6.3575 7.39021 6.52878 7.29905 6.52878 7.24105C6.52878 7.22113 6.1941 6.97536 5.78509 6.69492C4.77439 6.00192 4.59209 5.88551 4.51823 5.88584C4.48337 5.88601 4.40997 5.95056 4.35516 6.0293ZM22.679 6.67709L22.3469 6.97967L22.4411 7.48809C22.4929 7.76767 22.5349 8.02877 22.5345 8.0682C22.5341 8.10764 22.5463 8.13994 22.5616 8.13994C22.593 8.13994 23.1462 7.67566 23.2525 7.56003C23.3293 7.47653 23.3247 7.39562 23.2077 6.76718C23.1593 6.50666 23.1204 6.39513 23.0752 6.3866C23.04 6.37996 22.8617 6.51067 22.679 6.67709ZM1.45395 7.39189C1.38633 7.56122 1.13423 8.71866 1.06338 9.18515C0.925955 10.0899 0.896962 10.6567 0.949292 11.4151C1.03083 12.5971 1.24652 13.6194 1.64622 14.7186C1.86342 15.316 2.33481 16.2932 2.69806 16.8991C2.93617 17.2962 3.25497 17.7313 3.30789 17.7313C3.37077 17.7313 4.5817 16.8599 4.59419 16.8057C4.60173 16.773 4.56402 16.6933 4.51039 16.6284C3.52936 15.4415 2.73665 13.7479 2.44617 12.2183C2.24574 11.1626 2.24465 9.7244 2.44345 8.59081C2.46574 8.46371 2.4375 8.40128 2.19558 8.0432C1.85428 7.53793 1.63901 7.27917 1.56004 7.27917C1.52648 7.27917 1.47871 7.32992 1.45395 7.39189ZM21.6288 7.60007C21.5159 7.68861 21.3589 7.82744 21.28 7.90855L21.1365 8.05607L21.2105 8.62061C21.2512 8.9311 21.2981 9.19929 21.3148 9.21655C21.3315 9.23384 21.4995 9.10772 21.6881 8.93635C21.9929 8.6593 22.031 8.60856 22.031 8.47944C22.031 8.2802 21.9052 7.51223 21.866 7.47186C21.8485 7.45387 21.7417 7.51158 21.6288 7.60007ZM23.8627 8.35631C23.534 8.65467 23.4903 8.71378 23.5983 8.71378C23.6308 8.71378 23.8873 8.77916 24.1684 8.85908C24.7519 9.02497 24.6814 9.04005 25.1104 8.65758C25.2789 8.5074 25.348 8.41981 25.3199 8.39202C25.2767 8.34922 24.3276 8.05706 24.2386 8.05915C24.2112 8.0598 24.042 8.19351 23.8627 8.35631ZM15.5523 9.21589C15.6014 9.39538 15.5781 10.4282 15.5171 10.7681C15.4029 11.4049 15.2077 11.9938 14.9341 12.5257C14.5311 13.3096 14.2894 13.6412 13.8135 14.0628C13.4311 14.4017 13.1294 14.5411 12.7237 14.5665C11.9673 14.6138 11.3283 14.1448 10.5306 12.9569C9.96163 12.1094 9.57491 11.0436 9.51839 10.167L9.49183 9.75518L10.5975 9.75202C11.7414 9.7487 12.5059 9.69062 13.4966 9.53175C13.9957 9.4517 15.0138 9.2422 15.2645 9.16793C15.4665 9.10809 15.5254 9.11789 15.5523 9.21589ZM22.8664 9.31246C22.4432 9.663 22.3583 9.74723 22.3937 9.78129C22.4415 9.82724 23.008 9.97283 23.2669 10.0057C23.3822 10.0203 23.5262 10.0135 23.587 9.99062C23.743 9.9318 24.2515 9.5279 24.2515 9.46277C24.2515 9.43293 24.1997 9.38911 24.1363 9.36538C23.9457 9.29389 23.2731 9.12387 23.1806 9.12379C23.1332 9.12371 22.9918 9.20864 22.8664 9.31246ZM23.5074 10.7159C23.1788 10.825 22.9015 10.9227 22.8911 10.9328C22.8807 10.943 22.8242 11.1903 22.7656 11.4824C22.4934 12.8384 21.8856 14.2523 21.0774 15.4094C20.8908 15.6766 20.7468 15.9164 20.7576 15.9423C20.7683 15.9681 20.9037 16.0682 21.0584 16.1646C21.2131 16.261 21.4593 16.4392 21.6055 16.5605C21.7517 16.6818 21.9071 16.7902 21.9507 16.8013C22.0145 16.8177 22.0907 16.728 22.3393 16.344C23.166 15.0672 23.625 13.9944 23.9746 12.5221C24.1019 11.9858 24.2515 10.9556 24.2515 10.6154C24.2515 10.4792 24.199 10.4863 23.5074 10.7159ZM16.0627 13.9296C16.0539 13.9578 16.0361 14.1099 16.0232 14.2678C16.0051 14.49 15.9624 14.6285 15.8336 14.8826C15.5614 15.4195 15.11 15.8837 13.8783 16.8936C13.7151 17.0274 13.36 17.3284 13.0893 17.5624L12.5972 17.9879L12.4225 17.8246C12.3264 17.7349 11.8803 17.359 11.4312 16.9893C9.78863 15.6376 9.45542 15.226 9.35466 14.4249C9.33811 14.2934 9.30539 14.1737 9.28192 14.159C9.21179 14.1149 8.76423 14.2938 8.55194 14.4508C8.30537 14.6331 8.14364 14.8863 8.05453 15.2296C7.96868 15.5603 7.99637 15.8249 8.1488 16.1302C8.43358 16.7008 10.5865 18.5541 11.5565 19.0638C12.0536 19.325 12.2956 19.3876 12.6842 19.3554C13.2504 19.3086 13.6517 19.0734 15.0833 17.9494C16.4661 16.8638 17.0957 16.1718 17.2158 15.6059C17.3152 15.1376 17.1535 14.6448 16.7795 14.2762C16.4707 13.9717 16.1051 13.7949 16.0627 13.9296ZM18.0102 15.7201C17.9864 15.7638 17.9669 15.8255 17.9669 15.8575C17.9669 15.9437 17.5757 17.3208 17.4012 17.849C17.0536 18.9007 16.3369 20.3954 15.6329 21.5368C15.5821 21.6192 15.5396 21.6979 15.5386 21.7117C15.5348 21.7641 17.0083 23.1177 18.0469 24.0159C18.3668 24.2927 18.6075 24.4535 18.7018 24.4535C18.772 24.4535 19.5342 24.0224 19.957 23.7436C20.8049 23.1846 21.7935 22.3808 22.618 21.5802C23.2733 20.944 23.9989 20.1273 23.9997 20.0251C24.0005 19.9186 23.1477 19.0163 22.2368 18.1598C21.5055 17.4721 20.3377 16.627 19.559 16.2218C19.2124 16.0415 18.2008 15.6409 18.0921 15.6409C18.0709 15.6409 18.0341 15.6765 18.0102 15.7201ZM6.36119 16.792C5.49302 17.265 5.24256 17.4177 4.59465 17.8691C3.82331 18.4066 3.25811 18.8755 2.44651 19.6512C1.95308 20.1229 1.50104 20.6219 1.50104 20.695C1.50104 20.7459 2.4075 21.7282 2.66002 21.9508C2.77151 22.0491 2.96642 22.2246 3.09316 22.3407C4.40066 23.5385 6.44381 24.7457 8.079 25.2866C8.98621 25.5867 10.5391 25.8934 11.6403 25.9901C12.1267 26.0328 12.1275 25.9634 11.6495 25.2509C10.4195 23.4174 9.07101 21.2323 8.27361 19.7807C7.87479 19.0548 7.02472 17.3606 6.88537 17.014C6.72993 16.6274 6.69247 16.6115 6.36119 16.792ZM8.74936 18.4351C8.74936 18.4857 8.82821 18.6385 8.92462 18.7748C9.13436 19.0713 9.85731 20.0052 9.98895 20.1496C10.1372 20.3124 10.5984 20.8462 10.8033 21.0921C11.4749 21.8982 12.9032 23.3457 14.3637 24.7C15.316 25.5832 15.5357 25.7651 15.6504 25.7651C15.8301 25.7651 17.0324 25.2845 17.1246 25.1758C17.1605 25.1335 16.9292 24.8964 16.0709 24.0954C14.6972 22.8134 12.9012 21.0712 12.6096 20.7377C12.4276 20.5297 12.3437 20.4692 12.1299 20.3923C11.6155 20.2071 11.2433 20.0206 10.6199 19.6355C9.89543 19.188 9.87394 19.1732 9.33593 18.7513C9.11701 18.5796 8.8955 18.4176 8.84363 18.3912C8.75933 18.3483 8.74936 18.3529 8.74936 18.4351Z" fill="black"/>
</svg>
