<svg width="26" height="27" viewBox="0 0 26 27" fill="none" xmlns="http://www.w3.org/2000/svg">
<path fill-rule="evenodd" clip-rule="evenodd" d="M12.1431 0.00615246C12.1085 0.0126224 11.8598 0.0416944 11.5903 0.0707238C11.3209 0.0997108 11.0809 0.135721 11.0571 0.150661C11.0281 0.168922 11.0425 0.352889 11.1007 0.708053C11.1485 0.999625 11.1912 1.24212 11.1956 1.24693C11.2 1.2517 11.6341 1.24195 12.1602 1.22526C13.6439 1.17819 14.1866 1.23173 15.3902 1.54391C16.2289 1.76146 16.7272 1.94559 17.4431 2.3025C18.5496 2.85402 19.3978 3.47169 20.2733 4.3633C20.8848 4.98599 21.1966 5.36758 21.6392 6.03467C21.8149 6.29955 21.9718 6.52157 21.9877 6.52804C22.0465 6.55196 22.827 5.85887 22.827 5.78276C22.827 5.70453 22.2044 4.7887 21.8952 4.41204C21.064 3.39966 19.8429 2.30425 18.9386 1.75984C17.2623 0.750619 15.752 0.23162 14.0285 0.0724265C13.553 0.0284992 12.2651 -0.0167476 12.1431 0.00615246ZM9.77586 0.439126C9.60269 0.48267 8.24676 1.04551 7.95334 1.19559C7.47734 1.43915 6.57851 1.99365 6.21186 2.26994C4.86996 3.28129 3.64617 4.57642 3.63875 4.99309C3.63712 5.08593 3.90547 5.35728 4.07738 5.43662C4.36719 5.57036 4.38625 5.55972 4.90913 4.97185C5.85242 3.9113 6.77698 3.16641 7.97425 2.50235C8.47129 2.2267 9.1949 1.90367 9.47587 1.83203C9.5711 1.80773 9.63378 1.70897 9.88353 1.18951C10.2082 0.514424 10.2237 0.404563 9.99301 0.413118C9.91965 0.415843 9.82194 0.427548 9.77586 0.439126ZM10.2855 1.44039C9.91818 1.93819 9.60097 3.08975 9.39991 4.65555C9.19088 6.28371 8.68752 7.22628 7.71712 7.80678C7.26283 8.07852 6.43451 8.38814 5.81652 8.51715C5.28517 8.62808 4.93666 8.75377 4.93666 8.83448C4.93666 9.01138 6.08009 9.49803 7.28294 9.8331L7.93235 10.014L7.91798 10.7127C7.90261 11.4588 7.93328 11.6773 8.10472 12.0437C8.31161 12.4858 8.7238 12.9121 9.09812 13.071C9.27723 13.147 9.30966 13.1943 9.32365 13.4002C9.34058 13.649 9.47888 14.0002 9.78344 14.5675C10.143 15.2373 10.3837 15.5651 10.9055 16.0951C11.3069 16.5029 12.5085 17.5612 12.5707 17.5617C12.587 17.5618 12.8887 17.3178 13.2411 17.0194C14.5755 15.8895 15.4049 14.9234 15.7228 14.1287C15.8492 13.8127 15.9818 13.2799 16.0181 12.942C16.0426 12.7143 16.059 12.679 16.162 12.6327C16.3951 12.5279 16.7763 12.1272 16.9352 11.8201C17.1901 11.3273 17.2658 10.9608 17.2655 10.2195C17.2655 9.8683 17.246 9.45648 17.2223 9.30431C17.1905 9.10077 17.1918 9.01513 17.2273 8.98026C17.2539 8.95421 17.4865 8.83682 17.7442 8.71934C18.3206 8.45671 19.0457 8.03783 19.6903 7.59519C20.2783 7.19138 20.3205 7.14787 20.2068 7.0627C20.1386 7.01158 19.9859 7.00588 19.3076 7.02899C18.1531 7.06832 17.7201 7.01643 17.2551 6.78305C16.9449 6.6273 16.8271 6.53183 16.3501 6.04939C16.0485 5.74433 15.5749 5.23614 15.2977 4.92009C14.5442 4.06083 13.6953 3.26035 12.867 2.62779C12.4295 2.29365 12.2413 2.18119 12.1678 2.20984C12.1357 2.2224 12.0887 2.33064 12.0634 2.45046C11.9664 2.90991 12.0336 3.70401 12.2215 4.31716C12.2657 4.4615 12.287 4.57957 12.2688 4.57957C12.1927 4.57957 11.3884 3.66949 11.1618 3.32696C10.7781 2.74723 10.5123 2.03149 10.5098 1.57157C10.5089 1.414 10.4729 1.30205 10.4229 1.30205C10.4035 1.30205 10.3417 1.36432 10.2855 1.44039ZM0.00986004 1.90861C0.181054 2.51835 0.21143 2.74016 0.189015 3.21749C0.176362 3.48671 0.136685 3.80276 0.100779 3.91981C0.0648724 4.03687 0.0353335 4.15341 0.0350821 4.17878C0.0348307 4.20411 0.181097 4.3218 0.360126 4.44026C0.787023 4.72272 1.47645 5.41032 1.74791 5.82427C2.07626 6.325 2.40172 6.97668 2.62726 7.58515C2.9143 8.35962 2.98138 8.62412 3.19267 9.8151C3.40928 11.0361 3.71174 12.4399 3.9493 13.3267C4.08509 13.8336 4.30216 14.4618 4.61124 15.2422C5.11833 16.5223 5.31638 16.9242 5.43944 16.9225C5.55679 16.9209 5.85841 16.7577 5.85841 16.6959C5.85841 16.662 5.80185 16.5184 5.73272 16.3769C5.66359 16.2353 5.60703 16.1086 5.60703 16.0953C5.60703 16.082 5.50258 15.819 5.37491 15.511C5.03005 14.6788 4.62436 13.4041 4.36819 12.3477C4.0832 11.1724 4.01734 10.7958 3.80605 9.13405C3.71228 8.39661 3.59799 7.63044 3.55202 7.43144C3.31836 6.4198 2.97392 5.63425 2.4476 4.91265C2.24963 4.64121 2.08761 4.4065 2.08761 4.39109C2.08761 4.37573 2.2149 4.46537 2.37042 4.59038C2.52595 4.7154 2.7157 4.86204 2.79208 4.91631L2.93097 5.01493L3.03299 4.91754C3.08914 4.86395 3.13506 4.79397 3.13506 4.76201C3.13506 4.55906 2.58088 3.81468 1.95672 3.1793C1.2926 2.5032 0.338674 1.81283 0.0686011 1.81283C-0.000236988 1.81283 -0.0117592 1.8316 0.00986004 1.90861ZM25.3933 5.98703C25.2494 6.00606 24.7886 6.05195 24.3694 6.08902C23.9502 6.1261 23.5997 6.16402 23.5906 6.17326C23.5626 6.20178 23.7512 6.92683 23.8584 7.20249L23.9597 7.46307L23.6343 7.7821C23.4553 7.95755 23.2051 8.19247 23.0784 8.30407C22.9517 8.41572 22.6123 8.7313 22.3242 9.00538C22.0362 9.27941 21.6497 9.633 21.4653 9.79113C21.281 9.94922 20.951 10.2544 20.7321 10.4692C20.5132 10.6841 20.0796 11.0989 19.7685 11.3909C19.4574 11.6831 19.1934 11.9322 19.1819 11.9446C19.1704 11.957 18.7036 12.3947 18.1447 12.9173C17.5285 13.4933 17.1183 13.9083 17.1027 13.9712C17.0713 14.0986 17.1705 14.2226 17.3301 14.2553C17.3923 14.2681 17.4756 14.2913 17.5153 14.3068C17.5681 14.3276 17.6806 14.2455 17.9343 14.0011C18.125 13.8173 18.4508 13.5139 18.6582 13.3269C18.8656 13.1398 19.3285 12.7089 19.6868 12.3693C20.4728 11.6244 21.0993 11.0401 21.7167 10.4761C21.9702 10.2445 22.319 9.91938 22.4918 9.75363C22.95 9.31415 23.987 8.3297 24.2349 8.09882C24.3526 7.98926 24.4813 7.89966 24.5212 7.89966C24.5853 7.89966 25.4249 8.14748 25.5954 8.21677C25.6521 8.2398 25.6747 8.13403 25.7558 7.46507C25.8403 6.76934 25.9289 6.23055 25.9942 6.01615C26.0136 5.95264 25.9902 5.94247 25.836 5.94707C25.7365 5.95005 25.5373 5.96801 25.3933 5.98703ZM4.35516 6.2612C4.30036 6.34297 4.23973 6.40988 4.22046 6.40988C4.20123 6.40988 4.16675 6.44534 4.14396 6.48867C4.10952 6.55405 4.12892 6.58542 4.25767 6.67255C4.34305 6.73031 4.74879 7.00949 5.15927 7.29298L5.90559 7.80836L6.12291 7.74396C6.3575 7.67445 6.52878 7.57978 6.52878 7.51955C6.52878 7.49887 6.1941 7.24365 5.78509 6.95241C4.77439 6.23276 4.59209 6.11188 4.51823 6.11222C4.48337 6.11239 4.40997 6.17943 4.35516 6.2612ZM22.679 6.9339L22.3469 7.24812L22.4411 7.77609C22.4929 8.06643 22.5349 8.33757 22.5345 8.37852C22.5341 8.41947 22.5463 8.45301 22.5616 8.45301C22.593 8.45301 23.1462 7.97087 23.2525 7.8508C23.3293 7.76409 23.3247 7.68007 23.2077 7.02746C23.1593 6.75691 23.1204 6.64109 23.0752 6.63224C23.04 6.62534 22.8617 6.76108 22.679 6.9339ZM1.45395 7.67619C1.38633 7.85203 1.13423 9.05399 1.06338 9.53842C0.925955 10.478 0.896962 11.0666 0.949292 11.8542C1.03083 13.0816 1.24652 14.1432 1.64622 15.2847C1.86342 15.9051 2.33481 16.9198 2.69806 17.549C2.93617 17.9615 3.25497 18.4133 3.30789 18.4133C3.37077 18.4133 4.5817 17.5083 4.59419 17.452C4.60173 17.4181 4.56402 17.3353 4.51039 17.268C3.52936 16.0355 2.73665 14.2767 2.44617 12.6882C2.24574 11.5919 2.24465 10.0984 2.44345 8.92123C2.46574 8.78923 2.4375 8.72441 2.19558 8.35256C1.85428 7.82785 1.63901 7.55914 1.56004 7.55914C1.52648 7.55914 1.47871 7.61184 1.45395 7.67619ZM21.6288 7.89238C21.5159 7.98432 21.3589 8.12849 21.28 8.21273L21.1365 8.36592L21.2105 8.95217C21.2512 9.2746 21.2981 9.55311 21.3148 9.57103C21.3315 9.58899 21.4995 9.45802 21.6881 9.28005C21.9929 8.99235 22.031 8.93966 22.031 8.80558C22.031 8.59867 21.9052 7.80116 21.866 7.75924C21.8485 7.74055 21.7417 7.80048 21.6288 7.89238ZM23.8627 8.67771C23.534 8.98754 23.4903 9.04892 23.5983 9.04892C23.6308 9.04892 23.8873 9.11681 24.1684 9.19982C24.7519 9.37208 24.6814 9.38774 25.1104 8.99057C25.2789 8.83461 25.348 8.74364 25.3199 8.71478C25.2767 8.67035 24.3276 8.36694 24.2386 8.36911C24.2112 8.36979 24.042 8.50864 23.8627 8.67771ZM15.5523 9.57035C15.6014 9.75674 15.5781 10.8293 15.5171 11.1822C15.4029 11.8436 15.2077 12.4551 14.9341 13.0075C14.5311 13.8215 14.2894 14.1659 13.8135 14.6037C13.4311 14.9556 13.1294 15.1004 12.7237 15.1268C11.9673 15.1759 11.3283 14.6888 10.5306 13.4552C9.96163 12.5752 9.57491 11.4683 9.51839 10.558L9.49183 10.1304L10.5975 10.1271C11.7414 10.1237 12.5059 10.0633 13.4966 9.89835C13.9957 9.81522 15.0138 9.59767 15.2645 9.52054C15.4665 9.4584 15.5254 9.46857 15.5523 9.57035ZM22.8664 9.67063C22.4432 10.0346 22.3583 10.1221 22.3937 10.1575C22.4415 10.2052 23.008 10.3564 23.2669 10.3905C23.3822 10.4057 23.5262 10.3987 23.587 10.3749C23.743 10.3138 24.2515 9.89435 24.2515 9.82672C24.2515 9.79573 24.1997 9.75023 24.1363 9.72558C23.9457 9.65135 23.2731 9.47479 23.1806 9.4747C23.1332 9.47462 22.9918 9.56281 22.8664 9.67063ZM23.5074 11.1281C23.1788 11.2414 22.9015 11.3428 22.8911 11.3533C22.8807 11.3639 22.8242 11.6207 22.7656 11.924C22.4934 13.3322 21.8856 14.8005 21.0774 16.0021C20.8908 16.2796 20.7468 16.5286 20.7576 16.5554C20.7683 16.5823 20.9037 16.6862 21.0584 16.7863C21.2131 16.8865 21.4593 17.0714 21.6055 17.1974C21.7517 17.3234 21.9071 17.4359 21.9507 17.4476C22.0145 17.4645 22.0907 17.3714 22.3393 16.9726C23.166 15.6467 23.625 14.5327 23.9746 13.0037C24.1019 12.4468 24.2515 11.3769 24.2515 11.0237C24.2515 10.8822 24.199 10.8896 23.5074 11.1281ZM16.0627 14.4653C16.0539 14.4946 16.0361 14.6526 16.0232 14.8165C16.0051 15.0473 15.9624 15.1912 15.8336 15.455C15.5614 16.0125 15.11 16.4946 13.8783 17.5434C13.7151 17.6823 13.36 17.9949 13.0893 18.2379L12.5972 18.6797L12.4225 18.5102C12.3264 18.417 11.8803 18.0267 11.4312 17.6428C9.78863 16.239 9.45542 15.8116 9.35466 14.9797C9.33811 14.8431 9.30539 14.7189 9.28192 14.7035C9.21179 14.6578 8.76423 14.8435 8.55194 15.0066C8.30537 15.1959 8.14364 15.4588 8.05453 15.8154C7.96868 16.1588 7.99637 16.4335 8.1488 16.7506C8.43358 17.3431 10.5865 19.2677 11.5565 19.797C12.0536 20.0682 12.2956 20.1332 12.6842 20.0999C13.2504 20.0513 13.6517 19.807 15.0833 18.6398C16.4661 17.5124 17.0957 16.7938 17.2158 16.2061C17.3152 15.7198 17.1535 15.2081 16.7795 14.8253C16.4707 14.5091 16.1051 14.3255 16.0627 14.4653ZM18.0102 16.3248C17.9864 16.3701 17.9669 16.4342 17.9669 16.4674C17.9669 16.5569 17.5757 17.9869 17.4012 18.5355C17.0536 19.6276 16.3369 21.1798 15.6329 22.3652C15.5821 22.4508 15.5396 22.5325 15.5386 22.5468C15.5348 22.6012 17.0083 24.0069 18.0469 24.9396C18.3668 25.227 18.6075 25.394 18.7018 25.394C18.772 25.394 19.5342 24.9464 19.957 24.6568C20.8049 24.0763 21.7935 23.2416 22.618 22.4102C23.2733 21.7495 23.9989 20.9014 23.9997 20.7953C24.0005 20.6847 23.1477 19.7476 22.2368 18.8582C21.5055 18.1441 20.3377 17.2665 19.559 16.8458C19.2124 16.6585 18.2008 16.2424 18.0921 16.2424C18.0709 16.2424 18.0341 16.2795 18.0102 16.3248ZM6.36119 17.4378C5.49302 17.929 5.24256 18.0876 4.59465 18.5564C3.82331 19.1145 3.25811 19.6015 2.44651 20.407C1.95308 20.8968 1.50104 21.415 1.50104 21.4909C1.50104 21.5439 2.4075 22.5639 2.66002 22.7951C2.77151 22.8972 2.96642 23.0794 3.09316 23.1999C4.40066 24.4438 6.44381 25.6974 8.079 26.2591C8.98621 26.5708 10.5391 26.8893 11.6403 26.9897C12.1267 27.0341 12.1275 26.962 11.6495 26.2221C10.4195 24.3181 9.07101 22.0489 8.27361 20.5415C7.87479 19.7877 7.02472 18.0283 6.88537 17.6684C6.72993 17.2669 6.69247 17.2504 6.36119 17.4378ZM8.74936 19.1442C8.74936 19.1966 8.82821 19.3554 8.92462 19.4969C9.13436 19.8048 9.85731 20.7746 9.98895 20.9246C10.1372 21.0937 10.5984 21.6479 10.8033 21.9033C11.4749 22.7404 12.9032 24.2436 14.3637 25.65C15.316 26.5672 15.5357 26.7561 15.6504 26.7561C15.8301 26.7561 17.0324 26.257 17.1246 26.1441C17.1605 26.1002 16.9292 25.854 16.0709 25.0221C14.6972 23.6908 12.9012 21.8817 12.6096 21.5353C12.4276 21.3193 12.3437 21.2565 12.1299 21.1766C11.6155 20.9843 11.2433 20.7906 10.6199 20.3907C9.89543 19.926 9.87394 19.9106 9.33593 19.4725C9.11701 19.2942 8.8955 19.126 8.84363 19.0986C8.75933 19.054 8.74936 19.0588 8.74936 19.1442Z" fill="black"/>
</svg>
